<svg width="200" height="100" xmlns="http://www.w3.org/2000/svg">
 <!-- Created with Method Draw - http://github.com/duopixel/Method-Draw/ -->
 <g>
  <title>background</title>
  <rect fill="#fff" id="canvas_background" height="102" width="202" y="-1" x="-1"/>
  <g display="none" overflow="visible" y="0" x="0" height="100%" width="100%" id="canvasGrid">
   <rect fill="url(#gridpattern)" stroke-width="0" y="0" x="0" height="100%" width="100%"/>
  </g>
 </g>
 <g>
  <title>Layer 1</title>
  <path d="m37.00104,36.00023c0.25,-0.24999 0.49999,-0.24999 0.74999,-0.49999c0.25,-0.25 0.49999,-0.25 0.74999,-0.25c0.25,0 0.49999,0 0.99998,0c0.25,0 0.4514,-0.1121 1.49998,-0.49999c0.96674,-0.35762 1.70949,-0.36637 2.99995,-0.74999c1.22189,-0.36323 2.98444,-0.62456 4.49992,-0.74999c1.24572,-0.1031 2.2196,-0.37336 2.99995,-0.49999c0.7403,-0.12013 1.01901,0.09567 1.24998,0c0.32663,-0.1353 1.49998,-0.49999 2.99995,-0.49999c1.74997,0 3.74994,0 5.9999,0c2.24997,0 5.49991,0 7.99987,0c2.74995,0 4.24993,0 5.24992,0c1.24998,0 2.24996,0 2.74995,0c0.74998,0 1.24998,0 1.99997,0c0.24999,0 0.99998,0 1.49997,0c0.49999,0 1.24998,0 2.24997,0c1.24998,0 2.74995,0 3.99993,0c1.24998,0 2.24996,0 3.24995,0c0.99998,0 1.99997,0 3.24995,0c1.74997,0 3.49994,0 4.74992,0c1.49997,0 2.74995,0 3.99993,0c1.24998,0 2.49996,0 3.74994,0c2.49996,0 3.49994,0 4.74992,0c0.24999,0 1.13727,0.23878 1.99996,0.49999c0.47854,0.14489 0.99998,0 1.74998,0c0.74998,0 1.72691,0.12405 2.74995,0.25c0.74436,0.09164 1.74997,0.25 2.49995,0.25c0.74999,0 1.46962,0.12336 2.24996,0.25c0.74031,0.12014 1.24998,0 1.74998,0c0.74998,0 0.99998,0 1.49997,0c0.25,0 0.49999,0 0.74999,0c0.49999,0 0.74998,0 0.99998,0c0.74998,0 1.24998,0 2.24996,0c0.74998,0 1.99997,0 3.24994,0c1.24998,0 2.74995,0 3.74994,0c0.99998,0 2.05705,-0.287 2.74995,0c0.65327,0.27059 1.25667,0.44255 1.49998,0.49999c0.54405,0.12843 1.24997,0.25 1.74997,0.25c0.49998,0 0.74998,0 1.24997,0c0.75,0 1.24998,0 1.99997,0c0.99998,0 1.74997,0 2.74995,0c0.99998,0 2.24997,0 2.99995,0c1.24998,0 1.97691,0.12405 2.99995,0.25c0.99249,0.12218 1.27144,0.10511 1.74997,0.25c0.8627,0.2612 1.32748,0.58437 1.99997,0.99998c0.30075,0.18587 1.04648,0.67313 1.49997,0.99998c0.28682,0.20673 1.22656,0.77584 1.49998,0.99998c0.69707,0.57146 0.92311,0.79649 1.24997,1.24998c0.20673,0.28681 0.83653,0.67635 1.24998,1.24998c0.32686,0.45349 0.86469,1.17334 0.99998,1.49998c0.287,0.69289 0.3647,1.17334 0.49998,1.49997c0.287,0.6929 0.23878,1.13727 0.5,1.99997c0.07245,0.23927 0,0.49999 0,0.99998c0,0.49999 0,0.74999 0,1.24998c0,0.25 0.05743,0.50668 0,0.74999c-0.12843,0.54405 -0.5,0.74998 -1.24998,0.99998c-0.74998,0.25 -1.94246,0.63715 -2.99995,0.99998c-1.20573,0.4137 -2.4814,0.37438 -3.74994,0.49999c-1.49268,0.1478 -3.27249,0.01361 -4.49992,0.25c-1.32198,0.25459 -1.74997,0.74998 -2.74995,0.74998c-0.74998,0 -1.2196,0.12336 -1.99997,0.25c-0.7403,0.12013 -1.49997,0.25 -2.49995,0.25c-0.74998,0 -1.99997,0 -2.99995,0c-0.99998,0 -1.99997,0.49999 -2.99994,0.49999c-0.99998,0 -2.24997,0 -3.24995,0c-1.24998,0 -2.49995,0.25 -3.49994,0.25c-0.74998,0 -1.75484,0.15146 -2.74995,0.25c-1.26854,0.12561 -2.49997,0.74999 -3.49995,0.74999c-0.99998,0 -1.99997,0 -2.99995,0c-1.24998,0 -1.99997,0 -3.24995,0c-0.49999,0 -1.49998,0 -2.49996,0c-0.99998,0 -1.74997,0 -2.99995,0c-0.99998,0 -2.24997,0 -3.24995,0c-1.99997,0 -2.99995,0 -4.24993,0c-0.99998,0 -1.99997,0 -2.99995,0c-1.74997,0 -2.99995,0 -3.99993,0c-1.24998,0 -2.49996,0 -3.24995,0c-0.74999,0 -1.74997,0 -2.74995,0c-0.74999,0 -1.74997,0 -2.74995,0c-0.49999,0 -1.49998,0 -2.24996,0c-0.74999,0 -1.49998,0 -2.24997,0c-0.74998,0 -1.74997,0 -2.99995,0c-0.74998,0 -1.74997,-0.25 -2.49996,-0.25c-0.49999,0 -1.50746,-0.12782 -2.49995,-0.25c-1.02304,-0.12594 -1.99431,-0.27386 -2.99995,-0.49999c-1.24368,-0.27966 -2.50932,-0.34726 -3.74994,-0.49999c-1.02304,-0.12594 -2.26287,-0.08982 -3.24995,-0.25c-0.78034,-0.12663 -1.73142,-0.62438 -2.99995,-0.74998c-0.99512,-0.09853 -2.24996,0 -2.99995,0c-0.74999,0 -1.74997,0 -2.74996,0c-0.49999,0 -1.47692,-0.12405 -2.49996,-0.25c-0.49625,-0.06109 -1.21962,-0.12336 -1.99997,-0.25c-0.7403,-0.12014 -1.74997,-0.25 -1.99997,-0.25c-0.74999,0 -1.0967,-0.2294 -1.74997,-0.49999c-0.6929,-0.28701 -1.45591,-0.12156 -1.99997,-0.25c-0.97323,-0.22975 -1.47692,-0.12405 -2.49996,-0.25c-0.24812,-0.03054 -1.01336,0.11488 -1.49998,0c-0.54406,-0.12843 -0.76902,-0.15433 -0.99998,-0.25c-0.32664,-0.1353 -0.51336,-0.38512 -0.99998,-0.49999c-0.54406,-0.12843 -0.74999,-0.25 -0.99998,-0.25c-0.25,0 -0.52005,0.17231 -1.24998,0c-0.54405,-0.12843 -0.74998,-0.25 -1.49997,-0.25c-0.74999,0 -1.5107,-0.17755 -1.74997,-0.24999c-0.86269,-0.2612 -1.53803,-0.55865 -1.99997,-0.74999c-0.32664,-0.1353 -0.49999,-0.25 -0.74999,-0.25c-0.25,0 -0.49999,-0.25 -0.74998,-0.25c-0.25,0 -0.99998,-0.25 -1.24998,-0.49999c-0.25,-0.25 -0.54649,-0.17313 -0.99998,-0.49999c-0.28681,-0.20672 -0.49999,-0.49999 -0.49999,-0.74998c0,-0.25 -0.12156,-0.95592 -0.25,-1.49998c-0.05744,-0.24331 0,-0.49999 0,-0.99998c0,-0.25 0,-0.49999 0,-0.74998c0,-0.25 0,-0.49999 0,-0.74999c0,-0.25 0,-0.49999 0,-0.99998c0,-0.49999 0,-0.74999 0,-1.24998c0,-0.25 0.19256,-0.50668 0.25,-0.74999c0.12843,-0.54406 0.40432,-0.76902 0.49999,-0.99998c0.1353,-0.32664 0.42335,-0.61469 0.74999,-0.74999c0.23096,-0.09567 0.49999,-0.25 0.74999,-0.25c0.25,0 0.49999,0 0.74999,0c0.24999,0 0.49999,0 0.74998,0c0.25,0 0.49999,0 0.74999,0c0.25,0 0.49999,0 0.74999,0c0.25,0 0.49999,0 0.74999,0l0.25,0l0.49999,0" id="svg_1" stroke-width="1.5" stroke="#000" fill="none"/>
  <path d="m38.25102,72.74963c-0.25,0 -0.49999,0 -0.99998,0c-0.25,0 -0.74999,0 -0.99998,0c-0.49999,0 -0.88727,-0.23878 -1.74997,-0.49999c-0.23927,-0.07245 -0.76336,-0.13512 -1.24998,-0.25c-0.54405,-0.12843 -1.42334,-0.86469 -1.74997,-0.99998c-0.46193,-0.19134 -0.94233,-0.3258 -1.24998,-0.49999c-0.89697,-0.50786 -1.13727,-0.73878 -1.99997,-0.99998c-0.23927,-0.07245 -1.19923,-0.81411 -1.49998,-0.99998c-0.67249,-0.41562 -1.54648,-0.92312 -1.99997,-1.24998c-0.57363,-0.41344 -0.74999,-0.74999 -0.99998,-0.99998c-0.49999,-0.49999 -0.74999,-0.74998 -1.24998,-1.24998c-0.49999,-0.49999 -0.81411,-0.69924 -0.99998,-0.99998c-0.41562,-0.67249 -0.7194,-1.26648 -0.99998,-1.74997c-0.45242,-0.77961 -1.11468,-1.42333 -1.24998,-1.74997c-0.09567,-0.23096 -0.20995,-0.75322 -0.25,-0.99998c-0.12663,-0.78035 -0.44746,-1.26959 -0.74999,-1.99997c-0.42785,-1.03291 -0.62985,-1.75966 -0.74999,-2.49996c-0.12663,-0.78035 -0.49999,-0.99998 -0.49999,-1.24998c0,-0.25 -0.12156,-0.45593 -0.25,-0.99998c-0.05744,-0.24331 0,-0.49999 0,-0.74999c0,-0.74998 0,-1.49997 0,-2.24996c0,-0.74999 0,-1.24998 0,-1.49997c0,-0.74999 0,-1.24998 0,-1.99997c0,-0.49999 0,-1.24998 0,-1.74997c0,-0.74999 0,-1.24998 0,-1.74997c0,-0.49999 0,-1.49997 0,-1.99997c0,-0.99998 0,-1.99997 0,-2.24996c0,-0.74999 0,-1.49998 0,-2.24997c0,-0.74998 0,-1.74997 0,-2.49996c0,-0.99998 0,-1.49997 0,-1.99997c0,-0.49999 -0.16562,-1.07748 0.25,-1.74997c0.18587,-0.30075 0.25,-0.49999 0.25,-0.99998c0,-0.49999 0.36469,-0.67335 0.49999,-0.99998c0.19134,-0.46193 0.49999,-0.99998 0.74999,-1.49998c0.25,-0.49999 1.04326,-1.21316 1.24998,-1.49998c0.32686,-0.45349 0.42313,-1.04648 0.74999,-1.49998c0.20672,-0.28681 0.49999,-0.49999 0.74999,-0.74999c0.25,-0.25 0.74999,-0.74999 0.99998,-0.99998c0.25,-0.25 0.75667,-0.69255 0.99998,-0.74999c0.54405,-0.12843 1.55289,-0.67852 2.24996,-1.24998c0.54683,-0.44829 1.69922,-1.06411 1.99997,-1.24998c0.67249,-0.41562 1.31413,-0.8547 2.49996,-1.24998c0.7115,-0.23717 1.22693,-0.37405 2.24996,-0.49999c0.24812,-0.03055 1.24998,-0.49999 1.49997,-0.49999c0.74999,0 1.24998,-0.25 1.99997,-0.25c0.49999,0 0.99998,-0.25 1.49997,-0.25c0.49999,0 1.27004,0.17231 1.99997,0c0.54406,-0.12843 1.52143,-0.10511 1.99997,-0.25c0.8627,-0.2612 1.24998,-0.49999 1.99997,-0.49999c0.25,0 0.74999,0 1.24998,0c0.49999,0 1.24998,0 1.74997,0c0.74999,0 1.49998,0 2.24996,0c0.74999,0 1.51031,0.2118 2.49996,0.49999c0.75903,0.22103 1.46704,0.32214 2.49996,0.74999c0.73038,0.30253 1.27673,0.27024 2.24996,0.49999c0.54406,0.12843 0.84671,0.47939 1.49998,0.74999c0.69289,0.28701 1.21962,0.37336 1.99997,0.49999c0.7403,0.12013 1.47036,0.29757 2.24996,0.74999c0.48349,0.28058 1.07226,0.26217 2.24997,0.74999c0.83276,0.34494 1.46962,1.12335 2.24996,1.24998c0.74031,0.12014 1.49998,0.74999 1.99997,0.99998c0.49999,0.25 1.01901,0.65432 1.24998,0.74999c0.32664,0.1353 0.46317,0.29327 0.74999,0.49999c0.45349,0.32686 1.30289,0.92852 1.99996,1.49998c0.54683,0.44829 0.74999,0.74999 1.49998,1.49998c0.74999,0.74999 1.24998,1.49998 1.74997,1.99997c0.74998,0.74999 1.09626,1.34298 1.74998,2.24996c0.41344,0.57362 1.08652,1.17635 1.49997,1.74997c0.32686,0.45349 0.74999,1.24997 1.24998,1.74997c0.24999,0.25 0.49999,1.24998 0.74998,1.49998c0.49999,0.5 0.63511,1.01336 0.74998,1.49997c0.12843,0.54406 0.78606,1.23352 0.99998,1.74997c0.30254,0.73038 0.37156,1.45591 0.49999,1.99997c0.22974,0.97324 0.49999,1.99997 0.49999,2.99995c0,0.74999 0.25,1.49998 0.25,2.49996c0,0.74999 0,1.49998 0,1.99997c0,0.99998 0,1.24998 0,1.99997c0,0.49999 -0.03608,1.23352 -0.25,1.74997c-0.30254,0.73038 -0.19746,1.01959 -0.49999,1.74997c-0.21392,0.51646 -0.7194,1.26648 -0.99998,1.74997c-0.45242,0.77961 -0.67851,1.55289 -1.24998,2.24997c-0.44829,0.54683 -0.92312,1.04648 -1.24998,1.49997c-0.41344,0.57363 -0.42313,0.79649 -0.74999,1.24998c-0.20672,0.28681 -0.54326,0.46317 -0.74998,0.74998c-0.32686,0.45349 -0.79649,0.92313 -1.24998,1.24998c-0.28682,0.20672 -0.99998,0.74998 -1.24998,0.99998c-0.49998,0.49999 -0.94923,0.81411 -1.24998,0.99998c-0.67249,0.41562 -1.21317,0.79327 -1.49998,0.99998c-0.45349,0.32686 -0.92635,0.58654 -1.49997,0.99998c-0.45349,0.32686 -1.24998,0.49998 -1.74998,0.74998c-0.49998,0.24999 -0.95592,0.62156 -1.49997,0.74999c-0.48662,0.11488 -1.00668,0.19255 -1.24998,0.24999c-0.54405,0.12843 -0.94923,0.56412 -1.24998,0.74999c-0.67249,0.41562 -0.99998,0.24999 -1.49997,0.49998c-0.49999,0.25 -1.07749,0.08437 -1.74997,0.49999c-0.30075,0.18587 -0.50668,0.19257 -0.74999,0.25c-0.54405,0.12843 -1.24998,0.49999 -1.74997,0.49999c-1.24998,0 -1.99997,0.24999 -2.74995,0.24999c-0.99998,0 -1.63726,0.23878 -2.49996,0.49999c-0.95708,0.28978 -1.74997,0 -2.49996,0c-0.24999,0 -0.49999,0 -0.74998,0c-0.25,0 -0.49999,0 -0.74999,0c-0.25,0 -0.74999,0 -0.99998,0c-0.25,0 -0.49999,0 -0.74999,0c-0.24999,0 -0.49999,0 -0.74998,0c-0.49999,0 -0.74999,0 -0.99998,0c-0.25,0 -0.49999,0 -0.74999,0c-0.25,0 -0.49999,0 -0.74998,0c-0.25,0 -0.49999,0 -0.74999,0c-0.25,0 -0.49999,0 -0.99998,0c-0.25,0 -0.49999,0 -0.74999,0c-0.49999,0 -0.74998,0.25 -0.99998,0.25c-0.25,0 -0.49999,0 -0.99998,0c-0.25,0 -0.49999,0 -0.74999,0c-0.25,0 -0.42336,0.1147 -0.74999,0.24999c-0.23096,0.09566 -0.74998,0 -0.99998,0c-0.25,0 -0.49999,0.24999 -0.74999,0.24999c-0.25,0 -0.49999,0 -0.74999,0c-0.25,0 -0.49999,0 -0.74999,0c-0.24999,0 -0.49999,0 -0.74998,0c-0.25,0 -0.49999,0 -0.74999,0l-0.25,0" id="svg_2" stroke-width="1.5" stroke="#000" fill="none"/>
  <path d="m140.24934,78.74953c-0.25,0 -0.5,0 -0.75,0c-0.49998,0 -0.74998,0 -1.24997,0c-0.74998,0 -0.99998,0 -1.99997,0c-0.99998,0 -1.74092,-0.02897 -2.49995,-0.25c-0.98965,-0.28819 -1.28323,-0.14236 -2.24997,-0.49998c-1.04857,-0.38789 -1.76335,-0.88511 -2.24997,-0.99998c-0.54405,-0.12843 -1.04648,-0.42313 -1.49997,-0.74999c-0.2868,-0.20672 -0.49999,-0.24999 -0.99998,-0.49999c-0.49999,-0.24999 -0.72037,-0.29756 -1.49998,-0.74998c-0.48348,-0.28058 -1.42634,-0.83653 -1.99996,-1.24998c-0.45349,-0.32686 -0.92973,-0.82755 -1.74997,-1.49998c-0.69707,-0.57146 -1.17312,-0.79649 -1.49998,-1.24998c-0.20673,-0.28682 -0.51902,-0.40432 -0.74999,-0.49999c-0.65327,-0.27059 -0.74998,-0.74999 -0.99998,-0.99998c-0.74999,-0.74998 -0.99998,-0.99998 -1.49998,-1.49998c-0.49999,-0.49999 -0.49999,-0.74998 -0.74999,-0.99998c-0.24999,-0.24999 -0.24999,-0.49999 -0.49998,-0.74998c-0.25,-0.25 -0.53669,-0.7158 -0.99998,-1.24998c-0.81899,-0.94431 -1.84407,-1.77005 -2.24996,-2.74996c-0.19134,-0.46193 -0.58654,-1.17635 -0.99998,-1.74997c-0.32686,-0.45349 -0.08437,-1.07748 -0.49999,-1.74997c-0.37174,-0.60149 -0.87335,-0.96962 -0.99998,-1.74997c-0.04005,-0.24677 -0.25,-0.74999 -0.25,-0.99998c0,-0.25 -0.69255,-1.25667 -0.74998,-1.49997c-0.12843,-0.54405 -0.24999,-0.99998 -0.24999,-1.24998c0,-0.74999 -0.12337,-0.96962 -0.25,-1.74997c-0.12014,-0.7403 -0.49999,-1.49998 -0.49999,-1.99997c0,-0.49999 0,-1.24998 0,-1.99997c0,-0.25 0,-0.49999 0,-1.24998c0,-0.49999 0.09566,-1.269 0,-1.49997c-0.13529,-0.32663 -0.19255,-0.75668 -0.24999,-0.99998c-0.12843,-0.54406 -0.37336,-1.21962 -0.49999,-1.99997c-0.12013,-0.7403 0,-1.49998 0,-2.24997c0,-0.74998 0,-1.24998 0,-1.99997c0,-0.49999 0,-1.24998 0,-1.49998c0,-0.24999 0.24999,-0.74998 0.24999,-0.99998c0,-0.25 0.2294,-0.34671 0.49999,-0.99998c0.19134,-0.46193 -0.16562,-0.82749 0.25,-1.49997c0.18587,-0.30074 0.13512,-0.51337 0.24999,-0.99998c0.12843,-0.54406 0.17854,-0.8029 0.74999,-1.49998c0.22414,-0.27341 0.42313,-1.29648 0.74998,-1.74997c0.20672,-0.28681 0.87155,-0.95592 0.99998,-1.49998c0.05744,-0.24331 0.24999,-0.74999 0.74998,-1.24998c0.25,-0.25 0.40432,-0.51902 0.49999,-0.74999c0.1353,-0.32664 0.61469,-0.17336 0.74998,-0.49999c0.09566,-0.23096 0.17854,-0.8029 0.74999,-1.49998c0.67243,-0.82024 1.3467,-1.72937 1.99997,-1.99997c0.23096,-0.09567 1.18667,-0.84282 2.24996,-1.49998c0.47552,-0.29389 1.0529,-0.67852 1.74997,-1.24998c0.27341,-0.22414 0.49999,-0.49999 0.74998,-0.49999c0.25,0 0.78324,0.10762 1.74997,-0.25c0.52428,-0.19395 0.9514,-0.61209 1.99997,-0.99998c0.96674,-0.35762 2.03322,-0.39237 2.99995,-0.74999c1.04857,-0.38789 1.24997,-0.74999 1.74997,-0.74999c0.25,0 0.46962,-0.12336 1.24998,-0.25c0.49353,-0.08009 1.16185,-0.49312 2.24995,-0.74999c0.48662,-0.11488 1.22693,-0.37405 2.24997,-0.49999c0.74437,-0.09164 1.7059,-0.12156 2.24995,-0.25c0.24332,-0.05744 1.00322,-0.45995 1.24998,-0.49999c0.78035,-0.12663 0.99998,-0.25 1.49997,-0.25c0.75,0 1.27005,0.17231 1.99997,0c0.54407,-0.12843 1.22693,-0.37405 2.24997,-0.49999c0.99249,-0.12218 1.99997,0 3.24994,0c1.24998,0 2.49997,0 3.49994,0c0.75,0 1.49998,0 1.99997,0c0.25,0 0.5,0 0.74998,0c0.25,0 0.5,0 0.75,0c0.24998,0 1.24997,0 1.99997,0c0.99997,0 1.8477,0.44237 2.74995,0.99998c0.67249,0.41562 1.44025,0.60396 2.24995,0.99998c0.71016,0.34733 1.26901,0.40433 1.49997,0.49999c0.32664,0.1353 0.67336,0.61469 0.99998,0.74999c0.23097,0.09567 0.52585,0.22658 0.75,0.49999c0.57146,0.69707 0.99998,1.24998 1.74997,1.99997c0.74998,0.74999 1.24997,1.24998 1.74997,1.99997c0.49998,0.74998 1.1785,1.55289 1.74997,2.24996c0.89659,1.09365 1.20316,1.80167 1.74997,2.24996c0.69707,0.57146 1.3029,0.92852 1.99997,1.49998c0.27342,0.22415 0.74998,0.74999 0.99998,0.99998c0.25,0.25 0.99998,0.74999 1.24997,0.99998c0.25,0.25 0.54756,0.47038 0.99998,1.24998c0.28058,0.48349 0.45996,1.25321 0.5,1.49998c0.12663,0.78035 0.69745,1.51958 0.99998,2.24996c0.42784,1.03291 0.96944,1.75184 0.99998,1.99997c0.12593,1.02304 0.30603,1.47568 0.49998,1.99997c0.35762,0.96674 0.48878,1.63727 0.74998,2.49996c0.21733,0.7178 0.12987,1.50966 0.25,2.24996c0.12663,0.78035 0.25,1.49997 0.25,1.74997c0,0.74999 0,0.99998 0,1.74997c0,0.49999 0,0.99998 0,1.49997c0,0.49999 0,1.24998 0,1.74997c0,0.99998 0,1.99997 0,2.99995c0,0.74998 0.28978,1.79288 0,2.74995c-0.26122,0.8627 -0.53607,1.23352 -0.74998,1.74997c-0.30254,0.73038 -0.08438,1.32748 -0.5,1.99997c-0.37173,0.60149 -0.87155,0.70592 -0.99998,1.24998c-0.05743,0.24331 -0.33655,0.92635 -0.74998,1.49998c-0.32686,0.45349 -0.5517,0.95314 -0.99998,1.49997c-0.57146,0.69707 -1.05168,1.20315 -1.49997,1.74997c-0.57146,0.69707 -0.99998,0.99998 -1.49998,1.49998c-0.49998,0.49999 -1.24997,1.24998 -1.74997,1.74997c-0.74998,0.74998 -1.10469,0.85471 -1.49997,1.24998c-0.39528,0.39528 -0.86469,0.92334 -0.99998,1.24998c-0.09567,0.23097 -0.25,0.99998 -0.5,1.24998c-0.24998,0.24999 -0.61469,0.42335 -0.74998,0.74998c-0.09567,0.23097 -0.54326,0.96317 -0.74998,1.24998c-0.32686,0.45349 -0.49998,0.99998 -0.99998,1.49998c-0.25,0.25 -0.49998,0.49999 -0.74998,0.74999c-0.25,0.24999 -0.49998,0.24999 -0.74998,0.49998c-0.25,0.25 -0.53806,0.05867 -0.99998,0.25c-0.32663,0.13529 -0.71317,0.54327 -0.99998,0.74998c-0.45351,0.32686 -1.24998,0.25 -1.99997,0.49999c-0.74998,0.25 -1.26337,0.13512 -1.74997,0.25c-0.54405,0.12843 -0.74998,0.49999 -0.99998,0.49999c-0.25,0 -0.50644,-0.08009 -0.99998,0c-0.78035,0.12663 -1.74997,0.24999 -2.24995,0.24999c-0.99998,0 -2.00746,-0.12218 -2.99995,0c-1.02304,0.12595 -1.7196,0.37336 -2.49995,0.49999c-0.49355,0.08009 -0.75,0 -0.99998,0c-0.25,0 -0.5,0 -0.75,0c-0.24998,0 -0.49998,0 -0.74998,0c-0.49998,0 -0.76901,-0.09567 -0.99998,0c-0.32663,0.13529 -0.49998,0.49999 -0.74998,0.49999c-0.25,0 -0.49998,0 -0.99998,0c-0.25,0 -0.49998,0 -0.74998,0c-0.25,0 -0.49998,0 -0.74998,0c-0.25,0 -0.5,0 -0.74998,0c-0.25,0 -0.5,0 -0.75,0c-0.24998,0 -0.49998,0 -0.99997,0c-0.25,0 -0.75,0 -1.24998,0c-0.25,0 -0.5,0 -0.74998,0l-0.5,0l-0.24998,0" id="svg_3" stroke-width="1.5" stroke="#000" fill="none"/>
 </g>
</svg>