<svg width="200" height="100" xmlns="http://www.w3.org/2000/svg">
 <!-- Created with Method Draw - http://github.com/duopixel/Method-Draw/ -->
 <g>
  <title>background</title>
  <rect fill="#fff" id="canvas_background" height="102" width="202" y="-1" x="-1"/>
  <g display="none" overflow="visible" y="0" x="0" height="100%" width="100%" id="canvasGrid">
   <rect fill="url(#gridpattern)" stroke-width="0" y="0" x="0" height="100%" width="100%"/>
  </g>
 </g>
 <g>
  <title>Layer 1</title>
  <path d="m82.75008,52.99999c-0.25,-0.25 -0.5,-0.5 -0.75,-0.75c-0.25,-0.25 -0.45593,-0.37156 -0.99999,-0.5c-0.24331,-0.05744 -0.5,-0.25 -0.75,-0.5c-0.25,-0.25 -0.61469,-0.42336 -0.74999,-0.75c-0.09567,-0.23096 0,-0.5 0,-0.99999c0,-0.75 -0.25,-1.25 -0.25,-1.99999c0,-0.25 0,-1 0,-1.49999c0,-0.5 0,-1.25 0,-1.99999c0,-0.25 -0.11488,-0.51337 0,-1c0.12843,-0.54406 0.74999,-1.25 0.99999,-1.49999c0.5,-0.5 0.92636,-1.08655 1.49999,-1.5c0.4535,-0.32686 0.78982,-0.40266 1.5,-0.75c0.80972,-0.39602 1.49999,-0.75 1.99998,-1c0.5,-0.25 1.25,-0.25 1.99999,-0.25c0.25,0 0.5,0 0.75,0c0.25,0 0.5,0 0.74999,0c0.25,0 0.5,0 1.25,0c0.25,0 0.49999,0 0.74999,0c0.25,0 0.51903,-0.09567 0.75,0c0.32664,0.1353 0.5465,0.42314 0.99999,0.75c0.28682,0.20673 0.46318,0.54327 0.75,0.75c0.4535,0.32686 0.65432,0.51903 0.74999,0.75c0.1353,0.32664 0.73879,0.63728 1,1.49999c0.07245,0.23927 -0.04005,0.75323 0,1c0.12663,0.78036 0.37337,1.21964 0.5,1.99999c0.04005,0.24677 0.12156,0.70594 0.24999,1.25c0.05743,0.24331 0,0.75 0,1.49999c0,0.25 0,0.5 0,1.24999c0,0.25 0,0.5 0,1c0,0.5 0,0.75 0,1c0,0.25 0,0.5 -0.24999,0.75c-0.25,0.25 -0.5,0.5 -0.75,0.75c-0.25,0.25 -0.51903,0.40433 -0.75,0.5c-0.32664,0.1353 -0.51902,0.15433 -0.74999,0.25c-0.32664,0.1353 -0.75,0.25 -1,0.25c-0.49999,0 -0.99999,0 -1.24999,0c-0.5,0 -0.99999,0 -1.24999,0c-0.25,0 -0.75,0 -1,0c-0.24999,0 -0.49999,0 -0.74999,0c-0.5,0 -1,0 -1.74999,0c-0.5,0 -1.24999,0 -1.49999,0c-1,0 -1.17336,-0.1147 -1.49999,-0.25c-0.69291,-0.28701 -1,0 -1.25,0l-0.25,0l-0.49999,-0.5l-0.25,0" id="svg_8" stroke-width="1.5" stroke="#000" fill="none"/>
  <path d="m23.50033,77.99989c-0.75,-0.25 -0.96963,-0.62337 -1.74999,-0.75c-0.24677,-0.04005 -0.75668,-0.19256 -0.99999,-0.25c-0.54406,-0.12843 -0.5,-0.5 -1,-0.99999c-0.25,-0.25 -1,-1 -1.24999,-1.25c-0.74999,-0.74999 -1.24999,-1.24999 -1.49999,-1.49999c-0.25,-0.25 -0.55605,-0.7257 -0.75,-1.24999c-0.35762,-0.96674 -0.25,-1.24999 -0.25,-2.24999c0,-0.99999 0,-1.99999 0,-2.74998c0,-1 0,-1.99999 0,-3.24999c0,-1.49999 0.9954,-2.67799 1.24999,-3.99998c0.18911,-0.98195 0.72968,-2.58626 1.24999,-3.74998c0.51021,-1.14113 1.54852,-2.47213 2.24999,-3.74998c0.80701,-1.4701 1.93099,-2.80567 2.74999,-3.74998c0.23165,-0.26709 0.34672,-0.7294 1,-1c0.23097,-0.09567 0.75,0 1,0c0.5,0 1.74999,0 3.24998,0c1.49999,0 2.99999,0 4.49998,0c1.49999,0 2.99999,0 5.24998,0c1,0 1.92335,0.1147 2.24999,0.25c0.23096,0.09567 0.27006,0.07768 0.99999,0.25c0.54406,0.12844 1.21707,0.82214 2.24999,1.25c0.73039,0.30254 1.98831,1.01798 2.74999,1.49999c1.2318,0.77952 1.78324,0.89238 2.74999,1.25c0.52429,0.19395 1.30291,0.92853 1.99999,1.49999c0.82025,0.67244 1.33654,1.17636 1.74999,1.74999c0.32686,0.4535 0.75,1.25 1.25,2.24999c0.5,1 0.52024,1.77674 0.75,2.74999c0.12844,0.54406 0.40836,1.75561 0.5,2.49999c0.12594,1.02305 0.25,1.74999 0.25,2.24999c0,0.75 0,1.49999 0,1.99999c0,0.99999 0.09734,1.53981 -0.25,2.24999c-0.39602,0.80972 -0.8017,1.20316 -1.24999,1.74999c-0.57146,0.69707 -0.59628,1.09299 -1.25,1.99998c-0.41345,0.57363 -0.75,0.75 -1,1.25c-0.25,0.49999 -0.75,1.24999 -0.99999,1.49999c-0.25,0.25 -0.5,0.5 -1,0.99999c-0.5,0.5 -0.96318,1.04327 -1.25,1.25c-0.4535,0.32686 -1.01903,0.40432 -1.24999,0.49999c-0.65328,0.2706 -1.0465,0.67313 -1.5,1c-0.28682,0.20673 -0.92636,0.33655 -1.49999,0.74999c-0.4535,0.32686 -0.70593,0.37157 -1.25,0.5c-0.72993,0.17232 -0.92636,0.33655 -1.49999,0.75c-0.4535,0.32686 -0.75668,0.19255 -1,0.24999c-0.54406,0.12843 -1.00322,0.20995 -1.24999,0.25c-0.78036,0.12663 -1,0.25 -1.5,0.25c-0.5,0 -0.99999,0 -1.74999,0c-0.25,0 -0.99999,0 -1.24999,0c-0.5,0 -1,0 -1.25,0c-0.75,0 -1.24999,0 -1.49999,0c-0.25,0 -0.75,0 -1.24999,0c-0.25,0 -0.75,0 -1.24999,0c-0.75,0 -1.27006,0.17232 -1.99999,0c-0.54406,-0.12843 -1,-0.74999 -1.24999,-0.74999c-0.5,0 -0.75,-0.25 -1,-0.25c-0.25,0 -0.50669,-0.19256 -0.75,-0.25c-0.54406,-0.12843 -0.75,-0.25 -1,-0.25c-0.25,0 -0.5,-0.25 -0.75,-0.5c-0.5,-0.49999 -0.80568,-0.68099 -1.74999,-1.49999c-0.26709,-0.23165 -0.6147,-0.17336 -0.75,-0.5c-0.09567,-0.23096 -0.0465,-0.42313 -0.5,-0.74999c-0.28682,-0.20673 -0.38512,-0.51337 -0.5,-1c-0.12844,-0.54405 -0.75,-0.99999 -1,-1.24999c-0.25,-0.25 -0.45995,-0.50323 -0.5,-0.74999c-0.12663,-0.78036 -0.5,-1 -0.75,-1.74999l0,-0.5" id="svg_9" stroke-width="1.5" stroke="#000" fill="none"/>
  <path d="m79.25009,24.25012c-0.25,0 -0.5,0 -0.75,0c-0.25,0 -0.49999,0 -0.74999,0c-0.25,0 -0.5,0 -1,0c-0.25,0 -0.49999,0 -0.74999,0c-0.25,0 -0.75,-0.5 -1,-0.75c-0.25,-0.25 -0.74999,-0.75 -0.99999,-0.99999c-0.25,-0.25 -0.37157,-0.70593 -0.5,-1.24999c-0.05744,-0.24331 0,-0.75 0,-1.25c0,-0.5 0,-0.75 0,-0.99999c0,-0.25 0,-0.75 0,-1c0,-0.25 0,-1 0,-1.24999c0,-0.25 0.18101,-0.55568 1,-1.49999c0.23164,-0.26709 0.63954,-0.62982 1.49999,-1.24999c0.45349,-0.32686 0.79649,-0.17314 1.24999,-0.5c0.57363,-0.41345 1.00322,-0.70995 1.24999,-0.75c0.78036,-0.12663 1.19027,-0.60397 1.99999,-1c0.71018,-0.34734 1.46964,-0.37336 2.24999,-0.5c0.49355,-0.08009 1.27145,-0.10511 1.74999,-0.25c0.8627,-0.26121 1.96963,-0.62336 2.74998,-0.75c0.74032,-0.12014 1.71964,-0.12336 2.49999,-0.25c0.98708,-0.16018 1.99999,0 2.74998,0c1,0 2.49999,0 3.74998,0c2.74999,0 4.24998,0 5.49998,0c1.74999,0 3.49998,0 4.99998,0c1.99999,0 3.74998,0 5.74998,0c1.74999,0 3.99998,0 7.24997,0c3.49998,0 6.74997,0.75 9.99996,0.75c2.24998,0 3.45592,0.12156 3.99997,0.25c0.72993,0.17232 1.26903,0.15433 1.5,0.25c0.32664,0.1353 0.53734,0.11857 0.75,0.25c0.47552,0.29389 0.75,1 1.24998,1.49999c0.25,0.25 0.14238,0.53325 0.5,1.49999c0.19395,0.52429 0.25,1.49999 0.25,2.49999c0,0.5 0,1.49999 0,2.24999c0,0.75 0.09567,1.51902 0,1.74999c-0.1353,0.32664 -0.75,0.75 -0.75,1c0,0.25 -0.25,0.5 -0.49998,0.75c-0.25,0.25 -0.97694,0.62405 -2,0.75c-1.24063,0.15273 -2.75728,0.10219 -4.24998,0.25c-1.26854,0.12561 -2.69247,0.38716 -3.74998,0.75c-1.20576,0.41371 -3.23144,0.37439 -4.49998,0.5c-0.74635,0.0739 -1.74999,0 -2.49998,0c-1,0 -1.74999,0 -2.99999,0c-0.99999,0 -1.99998,0 -2.99998,0c-0.74999,0 -1.74999,0 -2.99998,0c-1.24999,0 -2.74999,0 -3.74998,0c-0.75,0 -1.49999,0 -2.49999,0c-0.74999,0 -1.49999,0 -2.24998,0c-1,0 -1.49999,0 -2.49999,0c-0.5,0 -1.49999,0 -2.49998,0c-1,0 -1.74999,0 -2.74999,0c-0.99999,0 -1.99999,0 -2.74998,0c-0.75,0 -1.25,0 -1.99999,0c-0.5,0 -1,0 -1.74999,0c-0.25,0 -1.03325,0.10762 -1.99999,-0.25c-0.52429,-0.19395 -1.50967,-0.12986 -2.24999,-0.25c-0.78035,-0.12663 -1.74999,-0.25 -2.74998,-0.25c-1,0 -1.74999,0 -2.49999,0l-0.25,0l-0.24999,0l0.24999,0" id="svg_10" stroke-width="1.5" stroke="#000" fill="none"/>
  <path d="m154.24977,75.99989c-0.25,0 -0.75,0 -1,0c-0.25,0 -0.54651,0.07687 -1,-0.25c-0.28682,-0.20673 -1.0775,-0.33438 -1.74998,-0.75c-0.30075,-0.18587 -0.71318,-0.79327 -1,-0.99999c-0.45349,-0.32687 -1,-0.74999 -1.5,-1.24999c-0.74998,-0.74999 -1.55168,-1.45316 -1.99998,-1.99999c-0.57147,-0.69708 -1.10397,-1.69026 -1.5,-2.49999c-0.34734,-0.71017 -0.213,-1.55708 -0.5,-2.24999c-0.27058,-0.65327 -0.74998,-1.24999 -0.74998,-1.99999c0,-0.75 0,-1.49999 0,-2.24999c0,-1 -0.12013,-1.25968 0,-1.99999c0.12663,-0.78036 0.25,-1.5 0.74998,-2.24999c0.5,-0.75 1.03325,-1.64237 2,-1.99999c0.52429,-0.19395 1.17313,-1.0465 1.49998,-1.5c0.41345,-0.57364 1.42975,-1.32755 2.25,-1.99999c0.69708,-0.57147 1.53323,-0.89237 2.49998,-1.25c0.52429,-0.19395 1.25,-1 1.5,-1c0.25,0 0.74998,0 1.24998,0c0.75,0 1.25,0 2.25,0c0.25,0 1.24998,0 1.49998,0c0.75,0 1.25,0 1.75,0c0.75,0 1.52005,0.32769 2.24998,0.5c1.08812,0.25687 1.1485,0.62825 1.75,1c0.67249,0.41562 0.99998,0.5 1.49998,0.75c0.5,0.25 0.75,0.75 1.5,1.49999c0.75,0.75 0.99998,1 1.24998,1.49999c0.25,0.5 0.37157,1.20593 0.5,1.74999c0.22975,0.97324 0,1.25 0,2.24999c0,0.25 0,1 0,1.49999c0,0.75 0,1.25 0,1.99999c0,0.5 0,1.24999 0,1.49999c0,0.25 -0.19257,1.00669 -0.25,1.25c-0.12843,0.54406 -0.44257,1.00668 -0.5,1.24999c-0.12843,0.54406 -0.49998,0.75 -0.49998,1c0,0.24999 -0.17314,0.79649 -0.5,1.24999c-0.20673,0.28682 -0.6147,0.42336 -0.75,0.74999c-0.09567,0.23097 -0.25,0.5 -0.75,1c-0.25,0.25 -0.5,0.5 -0.75,0.74999c-0.25,0.25 -0.49998,0.25 -0.74998,0.5c-0.25,0.25 -0.51903,0.15433 -0.75,0.25c-0.65327,0.2706 -0.76903,0.40433 -1,0.5c-0.32664,0.1353 -0.51903,0.15433 -0.75,0.25c-0.32663,0.13529 -0.5,0.24999 -0.74998,0.24999c-0.25,0 -0.5,0.25 -1,0.25c-0.5,0 -0.92336,0.3647 -1.25,0.5c-0.23097,0.09567 -0.5,0.25 -0.75,0.25c-0.25,0 -0.50667,-0.05744 -0.74998,0c-0.54407,0.12843 -0.75,0.25 -1,0.25c-0.25,0 -0.42336,0.1147 -0.75,0.25c-0.23097,0.09567 -0.5,0 -0.75,0c-0.25,0 -0.5,0 -0.74998,0c-0.25,0 -0.5,0 -0.75,0c-0.25,0 -0.5,0 -0.75,0c-0.25,0 -0.5,0 -0.75,0c-0.25,0 -1.00668,0.05743 -1.24998,0c-0.54407,-0.12843 -0.75,-0.25 -1,-0.5c-0.25,-0.25 -0.5,-0.5 -0.75,-0.5l-0.5,-0.25l0,-0.25l0,-0.24999" id="svg_12" stroke-width="1.5" stroke="#000" fill="none"/>
 </g>
</svg>