<svg width="200" height="100" xmlns="http://www.w3.org/2000/svg">
 <!-- Created with Method Draw - http://github.com/duopixel/Method-Draw/ -->
 <g>
  <title>background</title>
  <rect fill="#fff" id="canvas_background" height="102" width="202" y="-1" x="-1"/>
  <g display="none" overflow="visible" y="0" x="0" height="100%" width="100%" id="canvasGrid">
   <rect fill="url(#gridpattern)" stroke-width="0" y="0" x="0" height="100%" width="100%"/>
  </g>
 </g>
 <g>
  <title>Layer 1</title>
  <path id="svg_1" d="m24,62.25l35.75,10.25l69.75,0.75l38.75,-20.75l-26.25,-28.5l-57.5,-4.5l-60.5,42.75z" stroke-width="1.5" stroke="#000" fill="#fff"/>
  <path d="m50,63c0.5,0 1.47695,-0.12406 2.5,-0.25c0.99251,-0.12218 2.25,0 3.25,0c1,0 2,0 2.75,0c0.5,0 1,0 1.5,0c0.5,0 0.75,0 1,0c0.5,0 0.75,0 1,0c0.5,0 0.75,0.25 1,0.5c0.25,0.25 0.79327,0.46318 1,0.75c0.32687,0.4535 0.5,0.75 0.75,1c0.25,0.25 0.6147,0.42336 0.75,0.75c0.09567,0.23097 0.29327,0.71318 0.5,1c0.32687,0.4535 0.37157,0.70594 0.5,1.25c0.05744,0.24331 0.3647,0.67336 0.5,1c0.19135,0.46194 0.05865,0.78806 0.25,1.25c0.1353,0.32664 0.25,0.75 0.25,1.25c0,0.25 0.25,0.75 0.25,1.25c0,0.25 0,0.75 0,1c0,0.5 0,1 0,1.25c0,0.5 0,1 0,1.5c0,0.5 0,1 0,1.5c0,0.5 0.11488,1.26337 0,1.75c-0.12843,0.54406 -0.5,1 -1,1.5c-0.25,0.25 -0.5,0.75 -0.75,1.25c-0.25,0.5 -0.5,0.75 -1,1.25c-0.25,0.25 -0.46318,0.54327 -0.75,0.75c-0.4535,0.32687 -0.92636,0.83655 -1.5,1.25c-0.4535,0.32687 -0.92636,0.58655 -1.5,1c-0.4535,0.32687 -1.23354,0.53607 -1.75,0.75c-0.73039,0.30254 -1.25645,0.16991 -1.75,0.25c-0.78036,0.12663 -1.27006,0.07768 -2,0.25c-0.54406,0.12843 -1,0.25 -1.75,0.25c-0.5,0 -1,0 -1.75,0c-0.5,0 -1,0 -1.75,0c-0.5,0 -0.75,0 -1.25,0c-0.5,0 -1,0 -1.5,0c-0.5,0 -0.75,0 -1.25,0c-0.5,0 -0.75,0 -1.25,0c-0.5,0 -0.7965,-0.17313 -1.25,-0.5c-0.57364,-0.41345 -0.92636,-1.08655 -1.5,-1.5c-0.4535,-0.32687 -1,-0.75 -1.25,-1.25c-0.25,-0.5 -0.87156,-0.70594 -1,-1.25c-0.05744,-0.24331 -0.25,-0.75 -0.5,-1c-0.25,-0.25 -0.40433,-0.76903 -0.5,-1c-0.1353,-0.32664 -0.3647,-0.42336 -0.5,-0.75c-0.09567,-0.23097 -0.05866,-0.53806 -0.25,-1c-0.1353,-0.32664 -0.37156,-0.45594 -0.5,-1c-0.05744,-0.24331 0.09567,-0.76903 0,-1c-0.1353,-0.32664 -0.25,-0.75 -0.25,-1c0,-0.5 0,-0.75 0,-1c0,-0.25 0,-0.75 0,-1c0,-0.25 0,-0.5 0,-0.75c0,-0.5 0,-0.75 0,-1c0,-0.25 0,-0.5 0,-1c0,-0.25 0,-0.5 0,-0.75c0,-0.25 0,-0.5 0,-0.75c0,-0.25 0,-0.5 0,-0.75c0,-0.25 0,-0.5 0,-0.75c0,-0.25 0,-0.5 0,-0.75c0,-0.25 0,-0.5 0,-0.75c0,-0.25 0.01903,-0.40433 0.25,-0.5c0.32664,-0.1353 0.25,-0.5 0.5,-0.75c0,0 0.17336,-0.3647 0.5,-0.5c0.23097,-0.09567 0.5,-0.25 0.75,-0.5c0.25,-0.25 0.17336,-0.3647 0.5,-0.5c0.23097,-0.09567 0.32322,-0.07323 0.5,-0.25c0.17678,-0.17677 0.17336,-0.3647 0.5,-0.5c0.23097,-0.09567 0.57322,-0.07323 0.75,-0.25c0.17678,-0.17678 0.17336,-0.3647 0.5,-0.5c0.23097,-0.09567 0.5,-0.25 0.75,-0.25c0.25,0 0.26903,-0.15433 0.5,-0.25c0.32664,-0.1353 0.42336,-0.3647 0.75,-0.5c0.23097,-0.09567 0.57322,0.17678 0.75,0c0.17678,-0.17678 0.25,-0.25 0.5,-0.25c0,0 0.25,-0.25 0.25,-0.25c0.25,0 0.32322,0.17678 0.5,0c0.17678,-0.17678 0.25,-0.25 0.25,-0.25c0.25,0 0.5,0 0.75,0c0,0 0.25,0 0.5,0c0,0 0.25,-0.25 0.5,-0.25c0,0 0.25,0 0.5,0c0,0 0.25,0 0.5,0c0,0 0.25,0 0.25,0c0.25,0 0.25,0 0.5,0c0,0 0.25,0 0.25,0c0.25,0 0.5,0 0.75,0c0,0 0.25,0 0.5,0c0,0 0,0 0.25,0c0,0 0.25,0 0.25,0c0.25,0 0.25,0 0.5,0c0,0 0.25,0 0.25,0c0.25,0 0.25,0 0.5,0c0,0 0.25,0 0.25,0c0.25,0 0.25,0 0.5,0c0.25,0 0.25,0 0.5,0c0,0 0.25,0 0.25,0c0,0 0.25,0 0.25,0c0.25,0 0.25,0 0.5,0c0,0 0.25,0 0.25,0c0.25,0 0.25,0 0.25,0c0.25,0 0.25,0 0.25,0c0.25,0 0.25,0 0.25,0c0.25,0 0.25,0 0.5,0c0,0 0.25,0 0.25,0c0,0 0,0 0.25,0c0,0 0,0 0.25,0c0,0 0,0 0,0c0.25,0 0.25,0 0.25,0c0.25,0 0.25,0 0.5,0c0,0 0.25,0 0.25,0c0,0 0.25,0 0.25,0c0.25,0 0.25,0 0.5,0c0,0 0.25,0 0.25,0l0.25,0" id="svg_2" stroke-width="1.5" stroke="#000" fill="none"/>
  <path d="m131,84c-0.5,0 -1.5,0 -2.25,0c-1,0 -2,0 -3,0c-1,0 -2.00968,0.12014 -2.75,0c-0.78036,-0.12663 -1.25,-0.5 -1.75,-0.75c-0.5,-0.25 -1.3275,-0.58437 -2,-1c-0.6015,-0.37175 -1.30292,-0.67853 -2,-1.25c-0.54684,-0.4483 -1,-0.75 -1.25,-1c-0.25,-0.25 -0.75,-0.75 -1,-1c-0.25,-0.25 -0.42313,-0.5465 -0.75,-1c-0.20673,-0.28682 -0.38512,-0.76337 -0.5,-1.25c-0.12843,-0.54406 -0.42313,-1.2965 -0.75,-1.75c-0.20673,-0.28682 -0.3647,-0.67336 -0.5,-1c-0.19135,-0.46194 -0.19256,-1.00669 -0.25,-1.25c-0.12843,-0.54406 -0.13512,-1.01337 -0.25,-1.5c-0.12843,-0.54406 -0.25,-1 -0.25,-1.5c0,-0.5 0,-1 0,-1.5c0,-0.75 0,-1.5 0,-2c0,-0.75 -0.21734,-1.53218 0,-2.25c0.26121,-0.86271 0.92313,-1.5465 1.25,-2c0.41345,-0.57364 0.95316,-1.0517 1.5,-1.5c0.69708,-0.57147 1.3985,-1.12825 2,-1.5c0.6725,-0.41563 1.5,-0.75 2.25,-1.25c0.75,-0.5 1.3985,-0.87825 2,-1.25c0.6725,-0.41563 1.71964,-0.62336 2.5,-0.75c0.74032,-0.12014 2,-0.25 3,-0.25c1,0 2,0 2.75,0c0.5,0 1,0 1.5,0c0.5,0 1.25,0 1.75,0c0.25,0 1,0.25 1.5,0.75c0.5,0.5 1,1 1.5,1.5c0.5,0.5 0.75,0.75 1.25,1.25c0.5,0.5 1.10472,0.85471 1.5,1.25c0.39528,0.39529 0.85472,0.85471 1.25,1.25c0.39528,0.39529 0.67853,1.05292 1.25,1.75c0.4483,0.54684 0.83655,0.92637 1.25,1.5c0.32686,0.4535 0.62337,0.96964 0.75,1.75c0.12013,0.74032 0.25,1.25 0.5,1.75c0.25,0.5 0.5,1 0.5,1.5c0,0.5 0,1 0,1.5c0,0.5 0,0.75 0,1.25c0,0.5 0,1 0,1.25c0,0.5 0,1 0,1.5c0,0.5 0,1 0,1.5c0,0.25 0,0.75 0,1.25c0,0.25 0,0.75 0,1c0,0.25 0.09567,0.51903 0,0.75c-0.1353,0.32664 -0.25,0.5 -0.5,0.75c-0.25,0.25 -0.40433,0.51903 -0.5,0.75c-0.1353,0.32664 -0.54651,0.17313 -1,0.5c-0.28682,0.20673 -0.5,0.5 -0.75,0.75c-0.25,0.25 -0.5,0.25 -0.75,0.5c-0.25,0.25 -0.42336,0.3647 -0.75,0.5c-0.23097,0.09567 -0.42336,0.1147 -0.75,0.25c-0.23097,0.09567 -0.45593,0.12157 -1,0.25c-0.24332,0.05744 -0.53806,-0.19135 -1,0c-0.32664,0.1353 -0.75,0.25 -1,0.25c-0.25,0 -0.5,0.25 -0.75,0.25c-0.25,0 -0.5,0 -0.75,0.25c0,0 -0.25,0 -0.5,0c-0.25,0 -0.25,0 -0.5,0c-0.25,0 -0.5,0 -0.75,0c0,0 -0.5,0 -0.75,0c-0.25,0 -0.5,0 -0.75,0l0,0l-0.25,0" id="svg_3" stroke-width="1.5" stroke="#000" fill="none"/>
  <path d="m138.5,34c-0.75,0 -2,0 -3.25,0c-1,0 -2.00969,0.12014 -2.75,0c-0.78036,-0.12664 -1.17853,-0.80292 -1.75,-1.5c-0.22415,-0.27342 -0.46942,-0.7665 -0.75,-1.25c-0.45242,-0.77962 -0.75,-1.5 -1,-2.25c-0.25,-0.75 -0.62157,-1.45594 -0.75,-2c-0.17232,-0.72994 -0.05865,-1.28806 -0.25,-1.75c-0.1353,-0.32664 -0.25,-0.75 -0.25,-1c0,-0.25 0,-0.5 0,-0.75c0,-0.25 0,-0.75 0,-1c0,-0.25 0,-0.75 0,-1c0,-0.5 0,-0.75 0,-1.25c0,-0.5 0.3647,-0.92336 0.5,-1.25c0.19135,-0.46194 0.5,-1 1,-1.5c0.5,-0.5 0.75,-1 1.25,-1.5c0.5,-0.5 0.92636,-0.83655 1.5,-1.25c0.45349,-0.32686 1.25,-0.5 1.75,-0.75c0.5,-0.25 1.25,-0.5 2,-0.75c0.75,-0.25 1.75562,-0.40836 2.5,-0.5c1.02306,-0.12594 1.75,-0.25 2.75,-0.25c0.75,0 1.75,0 2.5,0c0.75,0 1.5,0 2,0c0.75,0 1.25,0 1.75,0c0.75,0 1.25,0 2,0c0.5,0 1,0 1.5,0.25c0.5,0.25 0.75,0.75 1.25,1.25c0.25,0.25 0.75,0.75 1,1.25c0.25,0.5 0.58655,0.92636 1,1.5c0.32686,0.4535 0.38512,1.01338 0.5,1.5c0.12843,0.54406 0.38512,1.01338 0.5,1.5c0.12843,0.54406 0.25,1 0.25,1.5c0,0.75 0,1.25 0,1.75c0,0.75 0,1.25 0,1.5c0,0.5 0,0.75 0,1.25c0,0.25 0,0.5 0,1c0,0.25 0,0.5 0,0.75c0,0.25 0.13144,0.78734 0,1c-0.2939,0.47553 -0.75,0.75 -1,1c-0.25,0.25 -0.75,0.5 -1,0.75c-0.25,0.25 -0.46318,0.29327 -0.75,0.5c-0.45349,0.32686 -0.71318,0.54327 -1,0.75c-0.45349,0.32686 -0.75,0.5 -1.25,0.75c-0.5,0.25 -0.79651,0.17314 -1.25,0.5c-0.28682,0.20673 -0.78806,0.30866 -1.25,0.5c-0.32664,0.1353 -0.67336,0.3647 -1,0.5c-0.46194,0.19134 -0.70593,0.12156 -1.25,0.25c-0.24332,0.05744 -0.75668,0.19256 -1,0.25c-0.54407,0.12844 -0.78806,0.05866 -1.25,0.25c-0.32664,0.1353 -0.75,0.25 -1,0.25c-0.5,0 -0.75,0.25 -1,0.25c-0.25,0 -0.5,0 -0.75,0c0,0 -0.25,0 -0.5,0c-0.25,0 -0.5,0 -0.75,0c-0.25,0 -0.5,0 -0.75,0c-0.25,0 -0.5,0 -0.75,0c0,0 -0.25,0 -0.25,0c-0.25,0 -0.25,0 -0.5,0c0,0 -0.25,0 -0.25,0c-0.25,0 -0.25,0 -0.5,0c-0.25,0 -0.5,0 -0.5,0c-0.25,0 -0.5,0 -0.5,0c-0.25,0 -0.25,0 -0.5,0c0,0 -0.25,0 -0.5,0c-0.25,0 -0.51903,-0.15433 -0.75,-0.25c-0.32664,-0.1353 -0.54651,-0.42314 -1,-0.75c-0.28682,-0.20673 -0.32323,-0.32322 -0.5,-0.5c-0.17677,-0.17678 -0.5,-0.25 -0.5,-0.5l-0.25,-0.25l0,-0.25l-0.25,-0.25" id="svg_4" stroke-width="1.5" stroke="#000" fill="none"/>
 </g>
</svg>