<svg width="200" height="100" xmlns="http://www.w3.org/2000/svg">
 <!-- Created with Method Draw - http://github.com/duopixel/Method-Draw/ -->
 <g>
  <title>background</title>
  <rect fill="#fff" id="canvas_background" height="102" width="202" y="-1" x="-1"/>
  <g display="none" overflow="visible" y="0" x="0" height="100%" width="100%" id="canvasGrid">
   <rect fill="url(#gridpattern)" stroke-width="0" y="0" x="0" height="100%" width="100%"/>
  </g>
 </g>
 <g>
  <title>Layer 1</title>
  <path id="svg_3" d="m25.16776,16.0005l-1.16811,56.33178l156.83104,-1.16665l-155.66292,-55.16513z" stroke-width="1.5" stroke="#000" fill="#fff"/>
  <path d="m33.33431,53.49995c0,-0.33333 -0.53617,-1.1087 -2.16663,-2.16664c-1.70662,-1.10735 -3.31711,-2.02643 -4.6666,-2.83329c-1.15327,-0.68954 -2.18863,-1.29253 -2.83329,-1.66664c-0.51974,-0.30162 -0.78223,-0.57646 -0.99999,-0.66666c-0.30795,-0.12756 -0.50891,-0.09008 -0.83332,-0.16666c-0.3627,-0.08562 -0.67311,-0.08657 -1.16665,-0.16666c-0.52024,-0.08442 -0.87138,0.02467 -1.33331,-0.16666c-0.21776,-0.0902 -0.49999,-0.16666 -0.66666,-0.16666c-0.16666,0 -0.33333,0 -0.66666,0c-0.16666,0 -0.33333,0 -0.66666,0c-0.16667,0 -0.49999,0 -0.83332,0c-0.33333,0 -0.66666,0 -0.99998,0c-0.33333,0 -0.61542,0.19767 -0.83332,0.49999c-0.27563,0.38242 -0.69766,0.61542 -0.99998,0.83332c-0.19121,0.13782 -0.36218,0.47545 -0.49999,0.66666c-0.21791,0.30233 -0.49999,0.49999 -0.83332,0.83332c-0.33333,0.33333 -0.49999,0.66666 -0.83332,0.99998c-0.16666,0.16666 -0.36218,0.47545 -0.49999,0.66666c-0.21791,0.30233 -0.42248,0.38512 -0.66666,0.66666c-0.34532,0.39815 -0.39103,0.78423 -0.66666,1.16665c-0.21791,0.30233 -0.33333,0.66666 -0.49999,0.99998c-0.16666,0.33333 -0.49999,0.83332 -0.66666,1.16665c-0.16666,0.33333 -0.4796,0.67766 -0.66666,0.99998c-0.30162,0.51974 -0.4796,0.84432 -0.66666,1.16665c-0.30162,0.51974 -0.46497,0.84639 -0.66666,1.33331c-0.14262,0.3443 -0.13164,0.67973 -0.33333,1.16665c-0.14262,0.3443 -0.16666,0.66666 -0.33333,1.16665c-0.16666,0.49999 -0.24891,0.97974 -0.33333,1.49998c-0.05339,0.32903 0,0.83332 0,1.33331c0,0.49999 0,0.99998 0,1.33331c0,0.33333 0,0.83332 0,1.16665c0,0.33333 -0.06489,0.85986 0.16666,1.33331c0.26401,0.53981 0.56418,1.22865 0.99999,1.83331c0.41345,0.57363 0.79254,1.18866 1.16665,1.83331c0.30162,0.51974 0.62588,1.18865 0.99999,1.83331c0.30162,0.51974 0.72855,0.95778 1.16665,1.66664c0.39185,0.63403 0.83332,1.49998 1.33331,2.16663c0.49999,0.66666 1.16665,1.16665 1.83331,1.83331c0.66666,0.66666 1.28773,1.21558 1.99997,1.83331c0.62954,0.54599 1.37231,0.91547 2.16664,1.33331c1.06365,0.55952 1.8842,1.22694 2.66663,1.66665c0.72646,0.40826 1.1932,0.76843 1.66664,0.99998c0.53981,0.26402 1.0051,0.65204 1.49998,0.83332c0.84275,0.30871 1.51195,0.6152 2.3333,0.83332c1.01876,0.27055 2.14786,0.56277 3.16662,0.83332c0.82135,0.21812 1.67084,0.31355 2.49996,0.49999c0.67043,0.15076 1.49998,0.33333 2.16663,0.49999c0.66666,0.16666 1.16665,0.16666 1.66665,0.16666c0.49999,0 0.83332,0 1.33331,0c0.33333,0 0.66666,0 1.16665,0c0.33333,0 0.67165,0.08145 1.33331,0c0.68203,-0.08396 1.29913,-0.53669 1.83331,-0.99998c0.62954,-0.54599 1.16665,-1.16665 1.83331,-1.66664c0.66666,-0.49999 1.20111,-1.13543 1.49998,-1.49998c0.38097,-0.46471 0.44875,-0.69765 0.66666,-0.99998c0.27563,-0.38242 0.36504,-0.64691 0.66666,-1.16666c0.37411,-0.64466 0.55718,-1.31265 0.83332,-2.16663c0.21142,-0.65384 0.47453,-1.3402 0.66666,-1.99997c0.14735,-0.50602 0.35264,-0.99396 0.49999,-1.49998c0.19212,-0.65977 0.41557,-1.14641 0.49999,-1.66664c0.08009,-0.49354 0.06485,-1.00623 0.16666,-1.83331c0.08396,-0.68202 0.33333,-1.49998 0.49999,-2.49996c0.16666,-0.99999 0.16666,-1.99998 0.16666,-2.99996c0,-0.83332 0,-1.49998 0,-2.16663c0,-0.83332 0,-1.49998 0,-2.3333c0,-0.83332 0,-1.66664 0,-2.49997c0,-0.66666 0.07175,-1.52214 -0.16666,-2.16663c-0.25859,-0.69905 -0.72855,-1.2911 -1.16665,-1.99997c-0.39185,-0.63403 -0.87003,-1.29913 -1.33332,-1.83331c-0.54599,-0.62954 -0.9544,-1.21558 -1.66664,-1.83331c-0.62954,-0.54599 -1.45695,-1.22118 -2.49996,-1.99997c-0.963,-0.71905 -2.20459,-1.44925 -3.33329,-2.3333c-1.20969,-0.94748 -2.45934,-1.89333 -3.66661,-2.66663c-1.13148,-0.72476 -1.99997,-1.16665 -2.66663,-1.49998c-0.66666,-0.33333 -0.99998,-0.49999 -1.33331,-0.66666c-0.33333,-0.16666 -0.49999,-0.33333 -0.83332,-0.33333c-0.16666,0 -0.33333,-0.16666 -0.66666,-0.16666c-0.16666,0 -0.66666,-0.16666 -0.99998,-0.16666c-0.33333,0 -0.97974,-0.08224 -1.49998,-0.16666c-0.49354,-0.08009 -1.16665,0 -1.66664,0c-0.66666,0 -1.33331,0 -1.99997,0c-0.83332,0 -1.49998,0 -2.16663,0c-0.66666,0 -1.33331,0 -1.83331,0c-0.49999,0 -0.99998,0 -1.33331,0c-0.33333,0 -0.66666,0 -0.83332,0c-0.16666,0 -0.33333,0 -0.49999,0c-0.16666,0 -0.49999,0 -0.83332,0.16666c-0.33333,0.16666 -0.69766,0.28209 -0.99999,0.49999c-0.38242,0.27563 -0.53099,0.44875 -0.83332,0.66666c-0.19121,0.13781 -0.33333,0.16666 -0.49999,0.33333c-0.16667,0.16666 -0.4098,0.28223 -0.49999,0.49999c-0.06378,0.15398 -0.24313,0.28223 -0.33333,0.49999c-0.06378,0.15398 -0.16666,0.33333 -0.16666,0.66666c0,0.16666 -0.16666,0.33333 -0.16666,0.49999c0,0.16666 -0.08104,0.30396 -0.16666,0.66666c-0.07658,0.32441 0,0.49999 0,0.66666c0,0.33333 -0.16666,0.5 -0.16666,0.66666c0,0.16666 -0.07647,0.4489 -0.16666,0.66666c-0.06378,0.15398 0.06378,0.34602 0,0.49999c-0.0902,0.21776 -0.16667,0.33333 -0.16667,0.49999c0,0.16666 0,0.33333 0,0.49999c0,0.16666 -0.07647,0.11557 -0.16666,0.33333c-0.12756,0.30796 0,0.49999 0,0.66666c0,0.16666 0,0.33333 0,0.49999l0,0.33333" id="svg_4" stroke-width="1.5" stroke="#000" fill="none"/>
  <path d="m186.83206,61.1665c-0.16667,0 -0.83333,0 -1.49998,0c-0.49998,0 -0.99998,0 -1.49997,0c-0.5,0 -0.99998,0 -1.33331,0c-0.5,0 -1.02536,-0.03911 -1.33331,-0.16666c-0.21776,-0.0902 -0.5,-0.16666 -0.66666,-0.16666c-0.16667,0 -0.28224,-0.07647 -0.5,-0.16666c-0.15398,-0.06377 -0.3587,0.12756 -0.66666,0c-0.21776,-0.0902 -0.3587,-0.0391 -0.66666,-0.16666c-0.21776,-0.0902 -0.47061,-0.24771 -0.83331,-0.33333c-0.32442,-0.07658 -0.50891,-0.09008 -0.83333,-0.16666c-0.3627,-0.08562 -0.66666,-0.16666 -1.16664,-0.16666c-0.33333,0 -0.80396,-0.08104 -1.16666,-0.16666c-0.64882,-0.15317 -1.16666,0 -1.66664,0c-0.5,0 -0.99998,0 -1.49998,0c-0.49998,0 -0.83331,0 -1.33331,0c-0.33333,0 -0.83331,0 -1.16664,0c-0.5,0 -0.83333,0 -1.33331,0c-0.33333,0 -0.66666,0 -1.16666,0c-0.33333,0 -0.83762,-0.05339 -1.16664,0c-0.52023,0.08442 -1.02654,0.26843 -1.49998,0.49999c-0.53981,0.26401 -0.84639,0.63163 -1.33331,0.83332c-0.3443,0.14262 -0.70193,0.45234 -1.16666,0.83332c-0.36455,0.29886 -0.80209,0.70113 -1.16664,0.99998c-0.46472,0.38098 -0.89102,0.61757 -1.16666,0.99998c-0.2179,0.30233 -0.52884,0.64211 -0.66666,0.83332c-0.21791,0.30232 -0.28209,0.69765 -0.49998,0.99998c-0.27563,0.38242 -0.58104,0.63728 -0.66666,0.99998c-0.07658,0.32441 -0.16667,0.83332 -0.16667,1.16665c0,0.33333 0,0.66666 0,1.16666c0,0.33333 0,0.83332 0,1.33331c0,0.33333 0,0.83332 0,1.49998c0,0.49999 0,1.16665 0,1.83331c0,0.66666 -0.19319,1.36192 0,1.99997c0.17413,0.57513 0.51869,0.98637 0.99998,1.66664c0.34708,0.49055 0.72855,1.12444 1.16666,1.83331c0.39185,0.63403 0.66666,1.16665 1.16664,1.83331c0.5,0.66666 0.85573,1.26107 1.33331,1.83331c0.53395,0.63979 0.96878,1.03445 1.33333,1.33331c0.46471,0.38097 0.61757,0.55769 0.99998,0.83332c0.30232,0.2179 0.69766,0.44875 0.99998,0.66666c0.38242,0.27563 0.78423,0.55769 1.16664,0.83332c0.30232,0.2179 0.66666,0.49999 1.16666,0.83332c0.49998,0.33333 1.02654,0.60177 1.49997,0.83332c0.53983,0.26402 0.96016,0.56931 1.49998,0.83332c0.47343,0.23155 1.16664,0.16666 1.66664,0.33333c0.49998,0.16666 1.01306,0.2983 1.49997,0.49999c0.3443,0.14262 0.63728,0.2477 0.99998,0.33333c0.32442,0.07658 0.5,0 0.83333,0c0.16667,0 0.5,0 0.66666,0c0.16667,0 0.5,0 0.83333,0c0.49998,0 0.99998,0 1.33331,0c0.49998,0 0.83331,0 1.33331,0c0.33333,0 0.66666,0 1.16664,0c0.5,0 1.21832,0.11041 1.66664,-0.16666c0.401,-0.24783 0.66666,-0.49999 0.99998,-0.66666c0.33333,-0.16666 0.5,-0.33333 0.83333,-0.49999c0.33333,-0.16666 0.70193,-0.28568 1.16664,-0.66666c0.36455,-0.29886 0.64691,-0.5317 1.16666,-0.83332c0.32233,-0.18705 0.53099,-0.28209 0.83331,-0.49999c0.19121,-0.13782 0.30879,-0.36217 0.5,-0.49999c0.30232,-0.21791 0.9084,-0.57507 1.33331,-0.99998c0.42491,-0.42491 0.619,-1.03527 0.99998,-1.49998c0.14943,-0.18228 0.35738,-0.48901 0.5,-0.83332c0.20169,-0.48692 0.33333,-0.83332 0.49998,-1.16665c0.16667,-0.33333 0.13164,-0.84641 0.33333,-1.33332c0.14262,-0.34431 0.0518,-0.68003 0.16667,-1.16665c0.08562,-0.3627 0.16666,-0.83332 0.16666,-1.16665c0,-0.49999 0.08104,-0.9706 0.16667,-1.33331c0.11488,-0.48662 0,-0.83332 0,-1.33331c0,-0.33333 0,-0.83332 0,-1.16665c0,-0.49999 0,-0.83332 0,-1.33331c0,-0.49999 0,-1.16665 0,-1.49998c0,-0.49999 0,-0.99998 0,-1.33331c0,-0.49999 0,-0.83332 0,-1.16665c0,-0.5 0,-0.83333 0,-1.33332c0,-0.49999 0.06488,-1.02653 -0.16667,-1.49998c-0.26402,-0.53981 -0.69838,-0.98023 -0.99998,-1.49998c-0.18704,-0.32233 -0.55768,-0.61757 -0.83331,-0.99998c-0.21791,-0.30233 -0.28424,-0.55769 -0.66666,-0.83332c-0.30232,-0.21791 -0.64212,-0.52884 -0.83333,-0.66666c-0.30232,-0.2179 -0.4489,-0.40979 -0.66666,-0.49999c-0.15398,-0.06377 -0.47545,-0.19551 -0.66666,-0.33333c-0.30232,-0.21791 -0.67111,-0.29504 -0.83333,-0.33333c-0.3627,-0.08562 -0.61555,-0.24313 -0.83331,-0.33333c-0.15398,-0.06379 -0.30396,-0.08104 -0.66666,-0.16666c-0.16222,-0.03829 -0.34602,0.06379 -0.5,0c-0.21776,-0.0902 -0.33333,-0.16666 -0.66666,-0.16666c-0.16666,0 -0.33333,-0.16666 -0.49998,-0.16666c-0.16667,0 -0.33333,0 -0.5,0c-0.16666,0 -0.33333,0 -0.49998,0c-0.16667,0 -0.33333,0 -0.66666,0c-0.33333,0 -0.5,0 -0.83333,0l-0.16666,0l0,0" id="svg_5" stroke-width="1.5" stroke="#000" fill="none"/>
 </g>
</svg>