<svg width="580" height="400" xmlns="http://www.w3.org/2000/svg">
 <!-- Created with Method Draw - http://github.com/duopixel/Method-Draw/ -->
 <g>
  <title>background</title>
  <rect fill="#fff" id="canvas_background" height="402" width="582" y="-1" x="-1"/>
  <g display="none" overflow="visible" y="0" x="0" height="100%" width="100%" id="canvasGrid">
   <rect fill="url(#gridpattern)" stroke-width="0" y="0" x="0" height="100%" width="100%"/>
  </g>
 </g>
 <g>
  <title>Layer 1</title>
  <path d="m86,276c2,0 6,0 11,0c4,0 9,0 12,0c5,0 8,0 12,0c4,0 8,0 12,0c3,0 5,0 8,0c2,0 4,0 8,0c3,0 6,0 9,0c4,0 7,0 10,0c3,0 6,0 8,0c3,0 5,-1 7,-1c2,0 4.0535,-0.5405 6,-1c2.17625,-0.51373 4.82375,-1.48627 7,-2c3.89299,-0.91901 7,0 9,0c3,0 5,0 8,0c2,0 4,0 7,0c4,0 7.90779,-0.49622 12,-1c4.96254,-0.61093 9,-1 13,-1c3,0 5.0535,0.4595 7,0c2.17625,-0.51373 4,-1 6,-1c2,0 4,0 6,0c3,0 6,0 9,0c2,0 5,0 7,0c2,0 3,0 5,0c2,0 3,0 5,0c2,0 4,0 5,0c1,0 3,0 5,0c2,0 4,0 6,0c2,0 5,0 8,0c1,0 3,0 5,0c2,0 3,0 5,0c2,0 3,0 5,0c1,0 3,0 5,0c2,0 4.02582,-0.32037 6,0c3.12143,0.50653 5,1 6,1c2,0 4.15225,-0.76538 6,0c1.30655,0.5412 3,1 5,1c2,0 3,1 4,1c2,0 4.02676,0.77023 5,1c2.17624,0.51373 3.15225,1.23462 5,2c1.30655,0.5412 1.82376,2.48627 4,3c0.97324,0.22977 2.02676,0.77023 3,1c2.17624,0.51373 2.69345,1.4588 4,2c0.92389,0.38269 2,0 4,0c1,0 2,0 3,0c1,0 2,0 3,0c1,0 2,0 3,0c1,0 2,0 4,0c1,0 3,0 4,0c2,0 3,0 5,0c2,0 4,0 5,0c1,0 3,0 5,0c1,0 2,0 4,0c1,0 3,0 4,0c2,0 3,0 5,0c1,0 2.15225,0.76538 4,0c1.30655,-0.5412 2.07611,-0.61731 3,-1c1.30655,-0.5412 1.29291,-1.29291 2,-2c0.70709,-0.70709 2,-1 3,-2c0,0 1,-1 2,-2c0,0 1.29291,-0.29291 2,-1c0.70709,-0.70709 0.29291,-1.29291 1,-2c0.70709,-0.70709 1.4588,-0.69345 2,-2c0.76538,-1.84775 1.49347,-2.87857 2,-6c0.32037,-1.97418 0.49622,-4.90778 1,-9c0.61093,-4.96254 0.51944,-9.03874 1,-12c0.50653,-3.12144 2,-5 2,-7c0,-2 1,-4 1,-5c0,-2 0.23462,-3.15224 1,-5c0.5412,-1.30656 1.1731,-2.85274 2,-4c1.30746,-1.814 0.69254,-3.186 2,-5c0.8269,-1.14726 2.49347,-2.87856 3,-6c0.16019,-0.98709 1.48627,-2.82375 2,-5c0.4595,-1.9465 0.77023,-4.02675 1,-5c0.51373,-2.17625 1.4588,-3.69344 2,-5c0.76538,-1.84776 0.23462,-3.15224 1,-5c0.5412,-1.30656 0.69254,-3.186 2,-5c0.8269,-1.14726 1.61731,-3.07613 2,-4c0.5412,-1.30656 2.48627,-1.82375 3,-4c0.22977,-0.97325 1.48627,-1.82375 2,-4c0.22977,-0.97325 1.48627,-1.82375 2,-4c0.22977,-0.97325 1.48627,-0.82375 2,-3c0.22977,-0.97325 0.61731,-2.07613 1,-3c0.5412,-1.30656 1.4588,-0.69344 2,-2c0.38269,-0.92387 1,-2 1,-2c0,-1 0.29291,-1.29289 1,-2c0.70709,-0.70711 0,-1 0,-2c0,0 0,-1 0,-1c0,-1 0,-2 0,-2c0,-1 0,-2 0,-3c0,0 0,-1 0,-1c-2,-1 -3.82376,-1.48625 -6,-2c-2.91974,-0.68925 -6.03873,-0.51945 -9,-1c-3.12143,-0.50655 -6.87857,-1.49345 -10,-2c-2.96127,-0.48055 -7,0 -10,0c-4,0 -9,0 -13,0c-4,0 -8,0 -12,0c-4,0 -7,0 -9,0c-3,0 -5,0 -7,0c-3,0 -5,0 -7,0c-3,0 -5,0 -7,0c-2,0 -5,0 -7,0c-3,0 -6,0 -10,0c-3,0 -8,0 -12,0c-3,0 -6,0 -9,0c-4,0 -7,0 -10,0c-4,0 -9,0 -13,0c-5,0 -9,0 -13,0c-3,0 -6,0 -9,0c-2,0 -5,0 -7,0c-2,0 -6,0 -10,0c-5,0 -11,0 -16,0c-6,0 -12,0 -19,0c-8,0 -16.00908,-0.07013 -24,1c-7.0085,0.93857 -13.01691,1.9034 -19,3c-5.01547,0.91925 -8.90779,1.49623 -13,2c-1.98502,0.24437 -4,0 -6,0c-3,0 -5,0 -7,0c-2,0 -3.82375,0.48625 -6,1c-1.9465,0.4595 -4.82375,0.48625 -7,1c-1.9465,0.4595 -4.93414,0.14429 -7,1c-2.92157,1.21014 -5.96384,2.11586 -9,3c-3.95868,1.15277 -8,2 -12,3c-4,1 -8.08025,1.31075 -11,2c-2.17625,0.51375 -5.0535,1.5405 -7,2c-2.17625,0.51375 -3.82375,1.48625 -6,2c-1.9465,0.4595 -4.82375,0.48625 -7,1c-1.9465,0.4595 -4.87856,0.49345 -8,1c-2.96127,0.48055 -6,0 -9,0c-3,0 -5,0 -7,0c-2,0 -4,0 -7,0c-2,0 -4,0 -7,0c-2,0 -4,0 -7,0c-2,0 -5,0 -7,0c-1,0 -3,0 -5,0c-1,0 -3,0 -4,0c-1,0 -3,0 -4,0c-1,0 -2,0 -2,0c-1,0 -2,0 -2,0c-1,0 -1,0 -2,0c0,0 0,0 0,0c-1,0 -1,0 -1,0c0,0 0,1 0,2c0,2 0,3 0,4c0,1 -0.38268,2.07613 0,3c0.54119,1.30656 1,2 2,3c1,1 1.61732,2.07613 2,3c0.54119,1.30656 1,2 2,3c0,0 0,1 1,2c0,0 -0.38268,1.07613 0,2c0.54119,1.30656 1.45881,0.69344 2,2c0.38268,0.92387 0.61732,1.07613 1,2c0.54119,1.30656 2,2 2,2c1,1 1.61732,2.07613 2,3c0.5412,1.30656 2.4588,1.69344 3,3c0.38268,0.92387 0.61732,2.07613 1,3c0.5412,1.30656 1.48626,1.82375 2,4c0.22975,0.97325 1.4588,1.69344 2,3c0.38268,0.92387 0.61732,3.07613 1,4c0.5412,1.30656 1.29289,1.29289 2,2c0.70711,0.70711 1,2 1,2c0,1 0,1 0,1c0,0 0,1 0,1c1,0 1,1 1,2c0,0 0,1 0,2c0,0 0,1 0,1c0,1 0,1 0,2c0,0 0,1 0,2c0,0 0,1 0,2c0,1 0,2 0,2c0,1 0,2 0,3c0,0 0,1 0,2c0,0 0,1 0,2c0,1 1,2 1,2c0,1 0,2 1,3c0,0 -0.38268,1.07613 0,2c0.5412,1.30656 1,1 1,2c0,1 1,1 1,2c0,1 0,2 0,2c1,1 1,1 1,2c0,0 0,1 0,1c1,1 1,1 1,2c0,0 0,1 0,1c0,1 0,1 0,1c0,1 0,1 0,1c0,0 0,1 1,1c0,0 0,1 0,1c0,1 0,1 0,2c0,0 0,1 0,1c0,0 0,1 0,1c0,0 0,0 0,1c0,0 0,1 0,1c0,0 0,0 0,1c0,0 0,0 0,0c0,1 0,1 1,1c0,0 0,1 0,1c0,0 0,0 0,1c0,0 0,0 0,0c0,0 0,1 0,1l0,0l1,0" id="svg_1" stroke-width="1.5" stroke="#000" fill="none"/>
  <path d="m141,314c0,0 0,0 -5,0c-3,0 -7,0 -10,0c-2,0 -5,0 -7,0c-2,0 -3,0 -4,0c-1,0 -2,0 -3,0c-1,0 -2,0 -3,0c-1,0 -2,0 -3,0c-1,0 -2,0 -3,-1c-1,-1 -1,-2 -2,-3c-1,-1 -1,-2 -2,-3c-1,-1 -2,-2 -3,-3c-1,-1 -2,-2 -2,-2c-1,-2 -2,-3 -3,-4c-1,-1 -2,-3 -3,-4c-1,-1 -1.4588,-1.69345 -2,-3c-0.38268,-0.92389 -0.61732,-2.07611 -1,-3c-0.5412,-1.30655 -1.4588,-1.69345 -2,-3c-0.38268,-0.92389 -0.4588,-2.69345 -1,-4c-0.38268,-0.92389 0,-2 0,-2c-1,-1 -1,-2 -1,-3c0,-1 0,-2 0,-3c0,-1 0,-2 0,-4c0,0 0,-2 0,-3c0,-1 0,-2 0,-3c0,-1 0,-2 0,-3c0,-2 0,-3 0,-4c0,0 0,-2 0,-3c0,-1 0,-2 0,-4c0,-1 0,-2 0,-3c0,-1 1,-2 2,-3c1,-1 2,-2 3,-3c1,-1 1.85273,-2.1731 3,-3c1.814,-1.30745 2.85273,-2.1731 4,-3c1.814,-1.30745 3,-2 4,-3c1,-1 3,-2 4,-3c1,-1 2.15224,-1.23463 4,-2c1.30656,-0.5412 1.82375,-2.48625 4,-3c0.97325,-0.22975 2.69344,-1.4588 4,-2c1.84776,-0.76537 3.07612,-0.61731 4,-1c1.30656,-0.5412 2.69344,-1.4588 4,-2c0.92388,-0.38269 2.69344,-0.4588 4,-1c1.84776,-0.76537 3.15224,0.76537 5,0c1.30656,-0.5412 3,-1 4,-1c1,0 2,0 3,0c2,0 3,0 5,0c1,0 3,0 4,0c2,0 4,0 5,0c2,0 3,0 5,0c1,0 2,0 3,0c1,0 3,0 4,0c1,0 2,0 3,0c1,0 2,0 3,0c1,0 2,1 3,2c1,1 2,1 3,2c1,1 1,2 2,3c1,1 1.61731,1.07613 2,2c0.5412,1.30656 1.4588,1.69344 2,3c0.38269,0.92387 0.61731,2.07613 1,3c0.5412,1.30656 1.4588,2.69344 2,4c0.38269,0.92387 0.69255,2.186 2,4c0.8269,1.14726 2,2 3,3c1,1 1.61731,3.07613 2,4c0.5412,1.30656 1.4588,1.69344 2,3c0.76537,1.84776 1,3 1,4c0,2 1,3 1,5c0,1 0,3 0,4c0,1 0,3 0,4c0,2 0,3 0,5c0,1 0,3 0,4c0,1 0,2 0,3c0,2 0,3 0,4c0,1 0,2 0,3c0,2 0,3 0,4c0,0 0,1 0,2c0,1 0,2 0,3c0,1 0,2 0,3c0,1 0,1 0,2c0,1 0,2 0,3c0,0 0,1 0,1c-1,1 -1,1 -2,2c0,0 -1,1 -1,1c-1,1 -1,1 -2,1c0,0 -1,1 -1,1c-1,0 -2,0 -2,0c-1,1 -1.29289,1.29291 -2,2c-0.70711,0.70709 -2.07613,0.61731 -3,1c-1.30656,0.5412 -1.69344,1.4588 -3,2c-0.92387,0.38269 -2.02675,-0.22977 -3,0c-2.17625,0.51373 -3,1 -4,1c-1,0 -2,0 -3,0c-1,0 -1.69344,0.4588 -3,1c-0.92387,0.38269 -2,0 -3,0c-1,0 -2,0 -3,0c-1,0 -1,0 -2,0c-1,0 -2,0 -2,0c-1,0 -2,0 -2,0c-1,0 -1,0 -1,0c0,0 -1,0 -1,0c0,0 -1,0 -1,0c-1,0 -1,0 -1,0c-1,0 -1,0 -1,0c-1,0 -1,0 -1,0c0,0 -1,0 -1,0c0,0 0,0 -1,0c0,0 -1,0 -1,0c-1,0 -1,0 -2,0c0,0 0,0 -1,0c0,0 0,0 0,0c-1,0 -1,0 -1,0c-1,0 -1,0 -2,0c0,0 -1,0 -2,0c-1,0 -1,0 -2,0c-1,0 -1,0 -2,0c0,0 0,0 0,0c-1,0 -1,0 -1,0l0,0l-1,0l0,0" id="svg_2" stroke-width="1.5" stroke="#000" fill="none"/>
  <path d="m370,312c-2,0 -5.87857,0.49347 -9,1c-2.96127,0.48056 -5,0 -7,0c-1,0 -2,0 -4,0c-2,0 -4,0 -5,0c-2,0 -3,0 -5,0c-1,0 -2,0 -3,0c-1,0 -3,0 -4,0c-1,0 -1.85272,-1.1731 -3,-2c-1.814,-1.30746 -4,-3 -5,-4c-2,-2 -3.82443,-3.0979 -5,-5c-0.52573,-0.85065 -0.69254,-2.186 -2,-4c-0.8269,-1.14728 -2,-2 -3,-3c-1,-1 -2,-3 -3,-4c-2,-2 -3,-3 -4,-4c-1,-1 -1.61731,-3.07611 -2,-4c-0.5412,-1.30655 -2.4588,-2.69345 -3,-4c-0.76538,-1.84775 -0.23462,-3.15225 -1,-5c-0.5412,-1.30655 -0.61731,-3.07611 -1,-4c-0.5412,-1.30655 -1,-3 -1,-4c0,-2 0,-3 0,-5c0,-1 0,-3 0,-5c0,-1 0,-3 0,-4c0,-1 -0.32037,-3.02582 0,-5c0.50653,-3.12144 4.186,-4.69255 6,-6c2.29453,-1.65381 4,-4 6,-5c2,-1 3.186,-1.69255 5,-3c1.14728,-0.8269 4.15927,-2.61064 7,-4c3.23892,-1.58411 5.93414,-3.14429 8,-4c2.92157,-1.21014 6,-2 8,-2c3,0 6,0 8,0c2,0 4,0 6,0c2,0 3,0 5,0c2,0 4,0 5,0c2,0 4,0 5,0c2,0 4,0 6,0c2,0 3,0 5,0c2,0 3.186,0.69255 5,2c1.14728,0.8269 2,2 3,3c1,1 3,2 4,3c1,1 1.85272,2.1731 3,3c1.814,1.30745 3,2 4,3c1,1 2.4588,2.69344 3,4c0.38269,0.92387 1.48627,1.82375 2,4c0.22977,0.97325 1,3 1,4c0,1 1,3 1,5c0,1 0.77023,3.02676 1,4c0.51373,2.17624 0.5405,3.0535 1,5c0.51373,2.17624 1,3 1,5c0,1 1,3 1,4c0,2 0,3 0,5c0,1 0,3 0,4c0,1 0,3 0,4c0,1 0,3 0,4c0,1 0,2 0,4c0,1 0,2 0,3c0,1 0,2 0,3c0,1 -0.4588,0.69345 -1,2c-0.38269,0.92389 -0.61731,1.07611 -1,2c-0.5412,1.30655 -1,1 -2,2c0,0 -1,1 -1,1c-1,1 -1.69345,1.4588 -3,2c-0.92389,0.38269 -2.69345,0.4588 -4,1c-0.92389,0.38269 -2.07611,-0.38269 -3,0c-1.30655,0.5412 -2,1 -3,1c0,0 -1,1 -2,1c-1,0 -2,0 -3,0c-1,0 -2,0 -3,0c-1,0 -2,0 -4,0c-1,0 -2,0 -3,0c-1,0 -2,0 -3,0c0,0 -1,0 -2,0c0,0 -1,0 -1,0c-1,0 -1,0 -2,0c-1,0 -1,1 -2,1c-1,0 -1,0 -2,0c-1,0 -2,1 -2,1l-1,0l-1,0l-1,0" id="svg_3" stroke-width="1.5" stroke="#000" fill="none"/>
 </g>
</svg>