<svg width="580" height="400" xmlns="http://www.w3.org/2000/svg">
 <!-- Created with Method Draw - http://github.com/duopixel/Method-Draw/ -->
 <g>
  <title>background</title>
  <rect fill="#fff" id="canvas_background" height="402" width="582" y="-1" x="-1"/>
 </g>
 <g>
  <title>Layer 1</title>
  <path d="m287,249c0,0 -5,0 -11,0c-8,0 -20.2101,-2.3726 -30,-6c-9.23529,-3.42189 -17.74283,-8.34457 -23,-12c-4.7874,-3.32878 -9.72507,-6.46356 -14,-13c-3.67172,-5.61412 -5.43288,-11.80243 -8,-18c-2.4203,-5.84312 -4,-13 -4,-18c0,-5 0,-10 0,-15c0,-7 -1.08127,-11.34508 1,-16c2.04085,-4.56453 6.72961,-9.22885 11,-14c2.82951,-3.16132 8.43195,-8.73459 16,-14c8.45139,-5.87998 16.78423,-8.65456 25,-11c9.80627,-2.79949 21,-6 32,-6c10,0 19,0 28,0c11,0 22.16046,-1.78425 32,0c8.40689,1.52446 14.67285,6.28027 19,11c4.87317,5.31529 7,10 9,14c2,4 3.06143,9.9915 4,17c1.07013,7.99092 2,15 2,21c0,9 0,17 0,24c0,6 0.75644,12.07217 0,16c-1.01837,5.28799 -4.5582,8.51929 -8,11c-3.62799,2.6149 -7.71899,5.31021 -11,8c-2.78833,2.28587 -6.76108,3.41589 -10,5c-2.84073,1.38936 -6,3 -9,4c-3,1 -6.96384,3.11586 -10,4c-3.95868,1.15277 -7.08026,1.31075 -10,2c-2.17624,0.51375 -3.82376,1.48625 -6,2c-1.9465,0.4595 -4.0535,-0.4595 -6,0c-2.17624,0.51375 -4,1 -6,1c-2,0 -4,1 -6,1c-3,0 -4.69345,0.4588 -6,1c-0.92389,0.38269 -3,0 -4,0c-1,0 -2,0 -3,0c0,0 -1,0 -2,0c0,0 -1,0 -2,0c-1,0 -2,0 -3,0c-1,0 -2,0 -2,0l-1,0l-1,0l0,0Z" id="svg_1" stroke-width="1.5" stroke="#000" fill="none"/>
 </g>
</svg>