<svg width="200" height="100" xmlns="http://www.w3.org/2000/svg">
 <!-- Created with Method Draw - http://github.com/duopixel/Method-Draw/ -->
 <g>
  <title>background</title>
  <rect fill="#fff" id="canvas_background" height="102" width="202" y="-1" x="-1"/>
 </g>
 <g>
  <title>Layer 1</title>
  <path id="svg_1" d="m65.00103,58.99973l87.49447,-0.00147l9.24973,14.49957l16.74951,-14.99956l0,-17.74948l-28.99915,-1.74995l-15.24955,-18.49945l-81.74759,0l-25.99923,0l0,38.74886l13.24961,0c0.02423,0 12.00259,14.75104 12.25259,14.75104c0.24999,0 12.99962,-14.99956 12.99962,-14.99956z" stroke-width="1.5" stroke="#000" fill="#fff"/>
  <path d="m54.50134,82.74904c-0.24999,0.24999 -0.49998,0.24999 -0.74998,0.24999c-0.24999,0 -0.53804,0.19134 -0.99997,0c-0.32663,-0.13529 -0.49998,-0.24999 -0.99997,-0.24999c-0.49998,0 -0.74998,-0.24999 -1.49995,-0.24999c-0.49998,0 -1.01334,0.11488 -1.49995,0c-0.54405,-0.12843 -1.17333,-0.61469 -1.49996,-0.74998c-0.46193,-0.19134 -0.71962,-0.37335 -1.49995,-0.49998c-0.24677,-0.04005 -0.46962,-0.12336 -1.24997,-0.24999c-0.24677,-0.04005 -0.74998,-0.24999 -0.99997,-0.49998c-0.24999,-0.24999 -0.49998,-0.24999 -0.74998,-0.49998c-0.24999,-0.24999 -0.99997,-0.74998 -1.24996,-0.99997c-0.24999,-0.24999 -0.49999,-0.49998 -0.74998,-0.74998c-0.24999,-0.24999 -0.49998,-0.49998 -0.74998,-0.74998c-0.24999,-0.24999 -0.40432,-0.51901 -0.49998,-0.74998c-0.1353,-0.32663 -0.54326,-0.46317 -0.74998,-0.74998c-0.32685,-0.45348 -0.19256,-0.75667 -0.24999,-0.99997c-0.12843,-0.54405 -0.24999,-0.74998 -0.74998,-1.24997c-0.25,-0.24999 -0.25,-0.49998 -0.25,-0.74998c0,-0.24999 0,-0.49998 0,-0.99997c0,-0.24999 0,-0.49998 0,-0.74998c0,-0.24999 0,-0.49998 0,-0.74998c0,-0.24999 -0.12156,-0.45592 -0.24999,-0.99997c-0.05744,-0.2433 -0.1147,-0.42335 -0.24999,-0.74998c-0.09567,-0.23096 0,-0.49998 0,-0.74998c0,-0.25 0,-0.49999 0,-0.74998c0,-0.24999 0,-0.49998 0,-0.74998c0,-0.24999 0,-0.49998 0,-0.74998c0,-0.24999 0,-0.74998 0,-0.99997c0,-0.24999 0,-0.49998 0,-0.74998c0,-0.24999 0,-0.74998 0,-0.99997c0,-0.24999 0.12156,-0.45592 0.24999,-0.99997c0.05744,-0.24331 0,-0.49998 0,-0.74998c0,-0.24999 0.24999,-0.74998 0.49999,-0.99997c0.24999,-0.24999 0.49998,-0.49998 0.49998,-0.74998c0,-0.24999 0,-0.49998 0.24999,-0.74998c0.24999,-0.24999 0.62154,-0.45592 0.74998,-0.99997c0.05744,-0.24331 0.15432,-0.51901 0.24999,-0.74998c0.1353,-0.32663 0.49998,-0.49998 0.74998,-0.74998c0.24999,-0.24999 0.24999,-0.49998 0.49998,-0.74998c0.24999,-0.25 0.54326,-0.46317 0.74998,-0.74998c0.32685,-0.45348 0.49998,-0.74998 0.74998,-0.99997c0.24999,-0.24999 0.49998,-0.24999 0.74998,-0.49998c0.24999,-0.24999 0.51901,-0.40432 0.74998,-0.49998c0.32663,-0.1353 0.50321,-0.45994 0.74998,-0.49998c0.78034,-0.12663 0.99997,-0.49999 1.24997,-0.74998c0.24999,-0.24999 0.51901,-0.15432 0.74998,-0.24999c0.32663,-0.1353 0.34671,-0.47939 0.99997,-0.74998c0.46193,-0.19134 0.74998,-0.24999 0.99997,-0.24999c0.49998,0 0.74998,0 0.99997,0c0.24999,0 0.42335,-0.1147 0.74998,-0.24999c0.23096,-0.09567 0.42335,-0.1147 0.74998,-0.24999c0.23096,-0.09567 0.49998,0 0.74998,0c0.25,0 0.49999,0 0.74998,0c0.24999,0 0.34671,-0.2294 0.99997,-0.49998c0.23096,-0.09567 0.49998,0 0.99997,0c0.24999,0 0.49998,0 0.74998,0c0.25,0 0.49999,0 0.99997,0c0.49998,0 0.74998,0 1.49995,0c0.24999,0 0.49998,0 0.99997,0c0.25,0 0.49999,0 0.74998,0c0.24999,0 0.49998,0 0.74998,0c0.24999,0 0.42335,0.36469 0.74998,0.49998c0.23096,0.09567 0.49998,0.24999 0.74998,0.49998c0.24999,0.24999 0.51901,0.40432 0.74998,0.49998c0.32663,0.1353 0.34671,0.72938 0.99997,0.99997c0.23096,0.09567 0.51901,0.15433 0.74998,0.25c0.32663,0.1353 0.51901,0.15432 0.74998,0.24999c0.32663,0.1353 0.40432,0.51901 0.49998,0.74998c0.13529,0.32663 0.44255,0.50667 0.49998,0.74998c0.12843,0.54404 0.49998,0.74998 0.99997,1.24996c0.24999,0.24999 0.49998,0.49999 0.74998,0.74998c0.25,0.25 0.49999,0.49998 0.49999,0.74998c0,0.24999 0.15433,0.51901 0.24999,0.74998c0.13529,0.32663 0.49998,0.49998 0.49998,0.74998c0,0.24999 0.24999,0.49998 0.24999,0.74998c0,0.25 0.1147,0.42335 0.24999,0.74998c0.09566,0.23096 0,0.49998 0,0.74998c0,0.24999 0,0.49998 0,0.74998c0,0.49998 0,0.74998 0,0.99997c0,0.24999 0.12156,0.45593 0.24999,0.99997c0.05743,0.24331 0,0.49998 0,0.74998c0,0.24999 0,0.49998 0,0.74998c0,0.24999 0,0.49998 0,0.99997c0,0.24999 0,0.49998 0,0.99997c0,0.24999 0,0.49998 0,0.99997c0,0.24999 0,0.49999 0,0.74998c0,0.24999 0,0.74998 0,0.99997c0,0.24999 0,0.49998 0,0.74998c0,0.24999 -0.24999,0.74998 -0.24999,0.99997c0,0.24999 0.09566,0.51901 0,0.74998c-0.13529,0.32663 -0.61469,0.42335 -0.74998,0.74998c-0.09566,0.23096 -0.1147,0.42335 -0.24999,0.74998c-0.09566,0.23096 -0.24999,0.49998 -0.24999,0.74998c0,0.24999 -0.24999,0.49998 -0.49999,0.74998c-0.25,0.25 -0.24999,0.49999 -0.49998,0.74998c-0.24999,0.24999 -0.24999,0.49998 -0.49998,0.74998c-0.24999,0.24999 -0.24999,0.49998 -0.49998,0.74998c-0.24999,0.24999 -0.44255,0.50668 -0.49998,0.74998c-0.12843,0.54404 -0.49998,0.74998 -0.74998,0.99997c-0.24999,0.24999 -0.49998,0.49998 -0.74998,0.74998c-0.24999,0.24999 -0.49998,0.49998 -0.74998,0.74998c-0.24999,0.24999 -0.49998,0.49998 -0.74998,0.49998c-0.25,0 -0.49999,0.24999 -0.74998,0.24999c-0.24999,0 -0.74998,0.24999 -0.99997,0.24999c-0.24999,0 -0.49998,0 -0.74998,0c-0.24999,0 -0.49998,0 -0.74998,0c-0.24999,0 -0.49998,0 -0.74998,0c-0.24999,0 -0.54649,-0.07686 -0.99997,0.24999c-0.28681,0.20672 -0.42334,0.61469 -0.74998,0.74998c-0.46193,0.19134 -0.67334,0.1147 -0.99997,0.24999c-0.23096,0.09566 -0.49998,0 -0.74998,0.24999c-0.24999,0.24999 -0.49998,0.49998 -0.74998,0.49998c-0.24999,0 -0.53804,-0.19134 -0.99997,0c-0.32663,0.13529 -0.49998,0.24999 -0.74998,0.24999c-0.24999,0 -0.49998,0 -0.74998,0l-0.25,0" id="svg_2" stroke-width="1.5" stroke="#000" fill="none"/>
  <path d="m159.74825,81.49907c-0.25,0 -0.53804,0.19133 -0.99997,0c-0.32663,-0.13529 -0.49998,-0.49998 -0.74998,-0.74998c-0.24998,-0.24999 -0.49998,-0.24999 -0.74997,-0.49998c-0.49998,-0.49999 -0.67336,-0.86468 -0.99998,-0.99997c-0.23096,-0.09566 -0.74997,-0.49998 -0.99997,-0.74998c-0.24998,-0.24999 -0.74997,-0.74997 -0.99997,-0.99997c-0.24998,-0.24999 -0.24998,-0.49998 -0.74997,-0.99997c-0.25,-0.24999 -0.29327,-0.46317 -0.49998,-0.74998c-0.32686,-0.45349 -0.4794,-0.5967 -0.74998,-1.24997c-0.09567,-0.23096 -0.37155,-0.70591 -0.49998,-1.24996c-0.05743,-0.2433 -0.15431,-0.51901 -0.24998,-0.74998c-0.1353,-0.32664 -0.49998,-0.49998 -0.49998,-0.74998c0,-0.49998 -0.1147,-0.67333 -0.25,-0.99997c-0.09567,-0.23096 0,-0.74998 0,-0.99997c0,-0.24999 0,-0.49998 0,-0.74998c0,-0.49998 0,-0.74998 0,-0.99997c0,-0.49999 0,-0.74998 0,-1.24997c0,-0.24999 0,-0.74998 0,-0.99997c0,-0.24999 0.15433,-1.019 0.25,-1.24996c0.13528,-0.32663 0.29326,-0.71316 0.49998,-0.99997c0.32686,-0.45348 0.61469,-0.67334 0.74997,-0.99997c0.09567,-0.23097 0.3647,-0.67335 0.49998,-0.99997c0.09567,-0.23096 0.25,-0.74998 0.49998,-0.99997c0.25,-0.25 0.49998,-0.49998 0.74998,-0.74998c0.49998,-0.49998 0.67311,-0.79648 0.99997,-1.24997c0.41344,-0.57362 0.99997,-0.49999 1.24995,-0.74998c0.74997,-0.74998 0.98352,-0.78605 1.49997,-0.99997c0.73036,-0.30253 1.019,-0.15433 1.24995,-0.24999c0.65326,-0.27059 0.76901,-0.40432 0.99997,-0.49998c0.32663,-0.1353 0.74998,-0.24999 0.99997,-0.24999c0.25,0 1.24997,-0.24999 1.49995,-0.24999c0.99997,0 1.46959,-0.12336 2.24994,-0.25c0.49353,-0.08009 1.24997,0 1.74995,0c0.74997,0 1.24995,0 1.74994,0c0.25,0 0.74998,0 0.99997,0c0.25,0 0.49998,0 0.74998,0c0.24998,0 0.7059,0.12156 1.24995,0.25c0.48662,0.11488 1.2059,0.62154 1.74995,0.74998c0.4866,0.11487 0.76901,0.15433 0.99997,0.24999c0.32663,0.1353 0.49998,0.24999 0.74998,0.24999c0.24998,0 0.49998,0 0.74997,0.24999c0.49998,0.49999 0.74998,0.74998 0.99997,0.99997c0.49998,0.49999 1.11467,0.92333 1.24997,1.24997c0.09567,0.23096 0.15431,0.51901 0.24998,0.74998c0.27058,0.65326 0.61469,0.67334 0.74998,0.99997c0.09567,0.23096 0.37155,0.70592 0.49998,1.24996c0.05743,0.24331 0.2294,0.34671 0.49998,0.99997c0.09567,0.23096 0.13513,0.51336 0.25,0.99997c0.12843,0.54404 0.1351,0.76335 0.24998,1.24996c0.12843,0.54405 0.25,0.74998 0.25,0.99997c0,0.74998 0,0.99997 0,1.49996c0,0.49998 0,0.74998 0,0.99997c0,0.49998 0,0.99997 0,1.24996c0,0.74998 0,1.24996 0,1.74995c0,0.24999 0,0.49998 0,0.74998c0,0.49998 0,0.74998 0,0.99997c0,0.24999 0,0.49998 0,0.74998c0,0.24999 0.05743,0.50668 0,0.74998c-0.12843,0.54405 -0.79326,0.96316 -0.99997,1.24996c-0.32686,0.45349 -0.49998,0.74998 -0.49998,0.99997c0,0.24999 -0.25,0.49998 -0.5,0.74998c-0.24998,0.24999 -0.15431,0.51901 -0.24998,0.74998c-0.1353,0.32664 -0.49998,0.49998 -0.74998,0.74998c-0.24998,0.24999 -0.49998,0.24999 -0.74997,0.49998c-0.25,0.25 -0.59671,0.47939 -1.24997,0.74998c-0.23096,0.09566 -0.42334,0.1147 -0.74997,0.24999c-0.23097,0.09567 -0.74998,0 -0.99997,0c-0.49998,0 -0.74998,0.24999 -0.99997,0.24999c-0.25,0 -0.42336,0.1147 -0.74998,0.24999c-0.23096,0.09566 -0.42334,0.36469 -0.74998,0.49999c-0.23096,0.09566 -0.49998,0 -0.74997,0c-0.25,0 -0.49998,0 -0.99997,0c-0.25,0 -0.74998,0 -0.99997,0c-0.25,0 -0.49998,0.24999 -0.74998,0.24999c-0.49998,0 -0.74997,0 -0.99997,0c-0.24998,0 -0.49998,0 -0.74997,0c-0.25,0 -0.49998,0 -0.99997,0c-0.25,0 -0.74998,0.24999 -1.24997,0.24999c-0.25,0 -0.49998,0 -0.74998,0c-0.24998,0 -0.49998,0 -0.74997,0c-0.25,0 -0.49998,0 -0.74998,0c-0.24998,0 -0.49998,0 -0.74997,0c-0.25,0 -0.49998,0 -0.74998,0l-0.24998,0l-0.49998,-0.24999l-0.25,-0.24999" id="svg_7" stroke-width="1.5" stroke="#000" fill="none"/>
  <path d="m97.50008,32.75051c-0.24999,0 -0.42335,-0.36469 -0.74998,-0.49998c-0.23096,-0.09567 -0.74998,-0.24999 -0.99998,-0.49998c-0.24999,-0.24999 -0.99997,-0.74998 -1.24996,-0.99997c-0.24999,-0.24999 -0.99997,-0.74998 -1.49995,-1.24996c-0.24999,-0.24999 -0.5529,-0.42852 -1.24996,-0.99997c-0.27341,-0.22414 -0.49998,-0.24999 -0.74998,-0.49998c-0.24999,-0.24999 -0.49998,-0.74998 -0.74998,-0.99997c-0.24999,-0.24999 -0.54326,-0.46317 -0.74998,-0.74998c-0.32686,-0.45349 -0.07769,-0.77004 -0.25,-1.49996c-0.12843,-0.54405 -0.42313,-0.79648 -0.74998,-1.24996c-0.20672,-0.28681 -0.24999,-0.49998 -0.24999,-0.99997c0,-0.24999 -0.24999,-0.74998 -0.24999,-1.24996c0,-0.24999 -0.49998,-0.99997 -0.49998,-1.24996c0,-0.24999 0,-0.49998 0,-0.74998c0,-0.49999 0,-0.74998 0,-0.99997c0,-0.24999 0.36469,-1.17332 0.49998,-1.49996c0.19134,-0.46193 0.24999,-0.99997 0.24999,-1.24996c0,-0.24999 0.61469,-0.92333 0.74998,-1.24996c0.09566,-0.23096 0.24999,-0.74998 0.49999,-0.99997c0.24999,-0.24999 0.49998,-0.49999 0.74998,-0.74998c0.24999,-0.24999 0.42635,-0.58653 0.99997,-0.99997c0.45348,-0.32685 1.03979,-0.65264 1.74995,-0.99997c0.80971,-0.39601 1.26957,-0.94743 1.99994,-1.24996c0.51645,-0.21392 0.99997,-0.74998 1.49996,-0.99997c0.49998,-0.24999 0.769,-0.15432 0.99997,-0.24999c0.32663,-0.1353 0.49998,-0.24999 0.74998,-0.24999c0.49998,0 0.78803,0.19134 1.24996,0c0.65326,-0.27059 0.74998,-0.49999 0.99997,-0.49999c0.74998,0 0.95591,-0.12156 1.49995,-0.24999c0.48661,-0.11487 0.74998,0 0.99997,0c0.24999,0 0.49998,0 0.74998,0c0.24999,0 0.49998,0 1.24996,0c0.24999,0 0.96315,0.04327 1.24996,0.24999c0.45348,0.32685 0.99997,0.49999 1.24996,0.74998c0.49998,0.49999 0.74998,0.74998 0.99997,0.99997c0.24999,0.24999 0.40432,0.51902 0.49998,0.74998c0.13529,0.32663 0.54755,0.47037 0.99997,1.24996c0.28058,0.48349 0.4694,1.01647 0.74998,1.49996c0.45242,0.7796 0.74998,0.99997 0.99998,1.49996c0.24999,0.49998 0.86468,0.92333 0.99997,1.24996c0.09566,0.23096 0.24999,0.49999 0.24999,0.74998c0,0.24999 0,0.49998 0,0.99997c0,0.49998 0.24999,0.74998 0.24999,1.24996c0,0.49998 0,1.24996 0,1.74995c0,0.49999 0,0.99997 0,1.49996c0,0.49998 0,0.99997 0,1.24996c0,0.24999 0,0.49998 0,0.74998c0,0.24999 0.07686,0.54649 -0.24999,0.99997c-0.20672,0.28681 -0.61469,0.42335 -0.74998,0.74998c-0.09566,0.23096 -0.24999,0.49998 -0.49998,0.74998c-0.49998,0.49998 -0.74998,0.74998 -0.99998,0.99997c-0.24999,0.24999 -0.54649,0.42312 -0.99997,0.74998c-0.28681,0.20672 -0.54649,0.17313 -0.99997,0.49998c-0.28681,0.20672 -0.45592,0.62155 -0.99997,0.74998c-0.48661,0.11487 -0.74998,0.24999 -1.24996,0.24999c-0.49998,0 -0.70592,0.37155 -1.24996,0.49999c-0.2433,0.05744 -0.42335,0.1147 -0.74998,0.24999c-0.23096,0.09567 -0.49998,0 -0.74998,0c-0.25,0 -0.50668,0.19256 -0.74998,0.24999c-0.54404,0.12843 -0.74998,0.24999 -0.99997,0.49998c-0.24999,0.24999 -0.49998,0.24999 -0.74998,0.24999c-0.24999,0 -0.49998,0.24999 -0.74998,0.24999c-0.24999,0 -0.50967,-0.12013 -1.24996,0c-0.78033,0.12663 -0.92333,0.36469 -1.24996,0.49999c-0.23096,0.09567 -0.49998,0 -0.74998,0l-0.74998,-0.24999l-0.49999,-0.49999l-0.24999,-0.24999" id="svg_8" stroke-width="1.5" stroke="#000" fill="none"/>
  <path d="m9.25267,-37.99741c0.24999,0 0.74998,0 0.99997,0c0.49999,0 1.24996,-0.49998 1.74995,-0.49998c0.49999,0 1.24996,0 2.49993,0l1.99994,0.24999l1.74995,0.74998l1.74995,0.74998" id="svg_9" stroke-width="1.5" stroke="#000" fill="none"/>
 </g>
</svg>