<svg width="200" height="100" xmlns="http://www.w3.org/2000/svg">
 <!-- Created with Method Draw - http://github.com/duopixel/Method-Draw/ -->
 <g>
  <title>background</title>
  <rect fill="#fff" id="canvas_background" height="102" width="202" y="-1" x="-1"/>
  <g display="none" overflow="visible" y="0" x="0" height="100%" width="100%" id="canvasGrid">
   <rect fill="url(#gridpattern)" stroke-width="0" y="0" x="0" height="100%" width="100%"/>
  </g>
 </g>
 <g>
  <title>Layer 1</title>
  <path d="m26.50003,59.75c0.25,0.25 0.5,0.25 0.75,0.25c0.25,0 0.5,0 0.75,0c0.25,0 0.75,0 1,0.25c0.25,0.25 0.53806,0.05866 1,0.25c0.32664,0.1353 0.75,0.75 1.25,1c0.5,0.25 0.70594,0.37156 1.25,0.5c0.24331,0.05744 1.01903,0.40433 1.25,0.5c0.32664,0.1353 0.5,0.25 0.75,0.25c0.25,0 0.51337,-0.11488 1,0c0.54406,0.12844 1.0465,0.42314 1.5,0.75c0.57364,0.41345 0.75,0.5 1,0.5c0.25,0 0.75,0.25 1,0.25c0.5,0 1.03806,0.05865 1.5,0.25c0.65328,0.2706 0.71964,0.62337 1.5,0.75c0.24677,0.04005 0.42336,0.1147 0.75,0.25c0.23097,0.09567 0.45594,0.12157 1,0.25c0.24331,0.05744 0.38729,0.48879 1.25,0.75c0.23927,0.07245 0.47695,0.37405 1.5,0.5c0.24813,0.03055 0.95594,0.62157 1.5,0.75c0.48663,0.11488 0.76903,0.15433 1,0.25c0.32664,0.1353 0.7665,0.21941 1.25,0.5c0.77962,0.45243 0.95594,0.62157 1.5,0.75c0.97325,0.22975 1.5,0.25 1.75,0.25c0.5,0 1,0.25001 1.5,0.5c0.5,0.25 1.20594,0.37156 1.75,0.49999c0.72994,0.17232 1.00323,0.20995 1.25,0.25c0.78036,0.12663 1,0.5 1.25,0.5c0.25,0 0.67336,0.1147 1,0.25c0.23097,0.09567 0.95594,0.12157 1.5,0.25c0.48663,0.11488 1.27675,-0.22975 2.25,0c0.54406,0.12843 1.49096,0.52897 2.25,0.75c0.98967,0.28819 2.22694,0.37405 3.25,0.5c0.74437,0.09164 1.70593,0.12157 2.24999,0.25c0.72993,0.17232 1.00323,-0.04005 1.25,0c0.78036,0.12663 1,0.5 1.25,0.5c0.75,0 1.25,0 2.5,0c1,0 2,0 3.25,0c1.25,0 2.5,0 3.75,0c1,0 2,0 3,0c0.75,0 1.25,0 2,0c0.25,0 0.5,0 0.75,0c0.49999,0 0.74999,0 1.49999,0c0.75,0 1.75487,0.09854 2.75,0c1.26855,-0.12561 2.26614,-0.04977 3.5,-0.25c0.78036,-0.12663 1.75,-0.25 2.75,-0.25c1,0 1.5,-0.25 1.75,-0.25c0.5,0 0.72659,-0.02585 1,-0.25c0.69708,-0.57147 1.25487,-0.40146 2.25,-0.5c1.26855,-0.12561 2.48145,-0.37439 3.75,-0.5c1.49269,-0.1478 3.73144,-0.62439 4.99999,-0.75c1.24392,-0.12317 2.5,-0.25 3.25,-0.25c1,0 1.5,-0.25 2.25,-0.25c1,0 1.25,0 2,0c0.25,0 1,0 1.5,0c0.25,0 1.25,0 2,0c0.75,0 1.74434,-0.27386 2.75,-0.49999c1.24369,-0.27966 2.47694,-0.37405 3.49999,-0.5c1.24063,-0.15273 2.99481,-0.27396 5.25,-0.75c1.24727,-0.26328 2.75188,-0.46945 3,-0.5c1.02306,-0.12595 1.75,-0.25 3,-0.25c0.75,0 1.25,0 2,0c0.5,0 1,0 1.75,0c0.75,0 1.75,0 2.5,0c0.5,0 1.5,0 2,0c0.75,0 1.25,0 2,0c0.75,0 1.75,0 2.75,0c0.75,0 1.25,0 2.25,0c0.75,0 1.25,0 1.75,0c0.99998,0 1.24998,0 1.49998,0c0.5,0 0.75,0 1,0c0.5,0 0.75,0 1,0c0.25,0 0.50365,0.07391 1.25,0c1.26855,-0.12561 2.01416,-0.97939 2.75,-1.5c1.02043,-0.72196 2.26416,-1.72939 3,-2.25c1.02043,-0.72197 1.75,-1.25 2.5,-2c0.25,-0.25 0.62337,-0.71964 0.75,-1.5c0.04004,-0.24677 -0.16019,-0.76291 0,-1.75c0.12663,-0.78036 0.33981,-1.51291 0.5,-2.5c0.12663,-0.78036 0.62405,-1.72694 0.75,-2.75c0.12218,-0.99251 0.24313,-1.91187 0.5,-3c0.11488,-0.48663 0,-1.25 0,-2c0,-0.75 0,-1.5 0,-2.5c0,-1.25 0,-1.75 0,-2.25c0,-0.75 0,-1.25 0,-1.75c0,-0.25 -0.04758,-0.97038 -0.5,-1.75c-0.28058,-0.4835 -0.17314,-0.7965 -0.5,-1.25c-0.20673,-0.28682 -0.62157,-0.70594 -0.75,-1.25c-0.11488,-0.48663 -0.48878,-0.63729 -0.75,-1.5c-0.1449,-0.47855 -0.29758,-0.97038 -0.75,-1.75c-0.28058,-0.4835 -0.70996,-1.25323 -0.75,-1.5c-0.12663,-0.78036 -0.5,-1 -0.5,-1.25c0,-0.5 -0.56413,-0.94925 -0.75,-1.25c-0.41563,-0.6725 -0.5,-1 -0.5,-1.25c0,-0.5 0,-0.75 0,-1c0,-0.5 -0.54327,-1.21318 -0.75,-1.5c-0.32686,-0.4535 -0.44257,-1.00669 -0.5,-1.25c-0.25687,-1.08813 -0.46298,-1.30709 -0.75,-2c-0.1353,-0.32664 -0.5,-0.75 -0.5,-1c0,-0.25 -0.8647,-0.92336 -1,-1.25c-0.09567,-0.23097 0.14528,-0.60472 -0.25,-1c-0.39528,-0.39528 -0.5,-0.5 -0.75,-0.75c-0.25,-0.25 -0.25,-0.5 -0.25,-1c0,-0.5 -0.15433,-0.76903 -0.25,-1c-0.1353,-0.32664 -0.5,-0.5 -0.75,-0.75c-0.25,-0.25 -0.63728,-0.98879 -1.5,-1.25c-0.71782,-0.21734 -1.94247,-0.38716 -2.99998,-0.75c-1.20575,-0.41371 -2.21964,-0.62336 -3,-0.75c-0.49355,-0.08009 -0.75,0 -1.25,0c-0.25,0 -0.5,0 -0.75,0c-0.25,0 -0.75,0 -2,0c-1,0 -1.85887,0.48979 -3,1c-1.16373,0.52032 -2.5,1 -3.75,1.5c-1.25,0.5 -2.28175,0.91965 -3,1.25c-1.32437,0.60913 -1.72038,0.79757 -2.5,1.25c-0.48351,0.28059 -1.51649,0.96941 -2,1.25c-0.77962,0.45243 -1.843,1.09628 -2.75,1.75c-0.57364,0.41345 -1.3275,0.58437 -2,1c-0.90225,0.55762 -1.25,1 -1.75,1.25c-1,0.5 -2.02448,0.95611 -2.5,1.25c-1.06331,0.65716 -2.0196,1.19746 -2.74999,1.5c-1.03293,0.42785 -2.02186,0.69848 -3.25,1.25c-1.01991,0.45801 -2.04424,0.5863 -3.25,1c-1.05752,0.36284 -1.75937,0.34727 -3,0.5c-1.02306,0.12594 -1.75749,0.12782 -2.75,0.25c-1.02306,0.12594 -1.47694,0.37406 -2.5,0.5c-1.24062,0.15273 -2.42799,0.24541 -3.74999,0.5c-0.98196,0.18911 -2.5,0 -4.25,0c-1.25,0 -3,0 -4.75,0c-1.25,0 -2.47694,-0.37406 -3.5,-0.5c-1.24063,-0.15273 -2.27007,-0.07768 -3,-0.25c-1.08813,-0.25687 -1.73354,-0.53607 -2.24999,-0.75c-0.73039,-0.30254 -1.21964,-0.37337 -2,-0.5c-0.49355,-0.08009 -1.22694,-0.62406 -2.25,-0.75c-0.49625,-0.06109 -1.2965,-0.17314 -1.75,-0.5c-0.57363,-0.41345 -1.23354,-0.78607 -1.75,-1c-0.73039,-0.30254 -1.45594,-0.87156 -2,-1c-0.24331,-0.05744 -0.67336,-0.1147 -1,-0.25c-0.23097,-0.09567 -0.8275,-0.08437 -1.5,-0.5c-0.6015,-0.37175 -0.92567,-0.63534 -1.75,-1c-0.94266,-0.417 -1.811,-0.54033 -3,-1c-1.35966,-0.52565 -2.24096,-1.02896 -2.99999,-1.25c-0.98967,-0.28819 -1.76961,-0.69746 -2.5,-1c-0.51646,-0.21393 -1.26961,-0.44746 -2,-0.75c-0.51646,-0.21393 -1.25,-0.5 -1.75,-0.75c-1,-0.5 -1.73354,-0.78607 -2.25,-1c-0.73039,-0.30254 -1.30292,-0.42853 -2,-1c-0.27342,-0.22415 -1.01903,-0.40433 -1.25,-0.5c-0.97992,-0.4059 -1.5465,-1.17314 -2,-1.5c-0.86045,-0.62018 -1.59774,-1.44238 -2.5,-2c-0.6725,-0.41563 -1,-0.5 -1.5,-1c-0.25,-0.25 -0.5,-0.5 -0.75,-0.5c-0.25,0 -0.51073,-0.17755 -0.75,-0.25c-0.86271,-0.26121 -1.05709,-0.46299 -1.75,-0.75c-0.65328,-0.2706 -1.53982,-0.90266 -2.25,-1.25c-0.80973,-0.39603 -1.25,-0.5 -1.75,-1c-0.25,-0.25 -0.42336,-0.3647 -0.75,-0.5c-0.23097,-0.09567 -0.42336,-0.1147 -0.75,-0.25c-0.23097,-0.09567 -0.51073,0.07245 -0.75,0c-0.86271,-0.26121 -1,-0.5 -1.25,-0.5c-0.75,0 -1,0 -1.5,0c-0.25,0 -0.67336,-0.1147 -1,-0.25c-0.23097,-0.09567 -0.5,0 -1,0c-0.25,0 -0.78806,0.19134 -1.25,0c-0.32664,-0.1353 -0.5,-0.25 -1,-0.25c-0.25,0 -0.5,0 -0.75,0c-0.75,0 -1,-0.25 -1.25,-0.25c-0.5,0 -1,0 -1.5,0c-0.5,0 -0.75,0 -1,0c-0.5,0 -0.75,0 -1,0c-0.25,0 -0.75,0 -1.25,0c-0.75,0 -1,0 -1.25,0c-0.5,0 -0.76903,-0.09567 -1,0c-0.32664,0.1353 -1,0.5 -1.25,0.75c-0.25,0.25 -0.5465,0.42314 -1,0.75c-0.57364,0.41345 -0.82215,1.21707 -1.25,2.25c-0.30254,0.73039 -0.40266,1.28982 -0.75,2c-0.39603,0.80973 -0.75,1.25 -0.75,1.75c0,0.75 -0.25,1.5 -0.25,2c0,0.75 -0.12337,1.71964 -0.25,2.5c-0.12014,0.74032 -0.5,1.5 -0.5,2.5c0,0.5 -0.12156,1.20594 -0.25,1.75c-0.17232,0.72994 0.06109,1.50375 0,2c-0.12594,1.02305 -0.25,1.25 -0.25,2c0,0.75 0,1.5 0,2c0,1 0.09164,2.00562 0,2.75c-0.12594,1.02305 -0.75,2 -0.75,2.75c0,1 -0.37406,1.72694 -0.5,2.75c-0.06109,0.49625 0,1 0,1.5c0,0.5 0,1.25 0,1.5c0,0.5 0,1.25 0,1.5c0,0.75 -0.12156,0.95594 -0.25,1.5c-0.11488,0.48663 0,0.75 0,1.25c0,0.5 -0.2294,0.59671 -0.5,1.25c-0.09567,0.23097 0,0.75 0,1c0,0.5 0,0.75 0,1c0,0.25 0,0.5 0,0.75c0,0.25 0,0.5 0,0.75c0,0.25 0,0.5 0,0.75c0,0.25 0,0.5 0,1c0,0.25 0,0.5 0,0.75c0,0.75 0,1 0,1.25c0,0.25 0,0.5 0,0.75c0,0.25 0,0.5 0.25,0.75c0.25,0.25 0.25,0.5 0.25,0.75c0,0.25 -0.09567,0.76903 0,1c0.1353,0.32664 0.5,0.5 0.75,0.75c0.25,0.25 0.5,0.5 0.75,0.75c0.25,0.25 0.5,0.5 0.75,0.75c0.25,0.25 0.51903,0.40433 0.75,0.5c0.32664,0.1353 0.5,0.25 0.75,0.25c0.5,0 0.75,0.25 1,0.25c0.25,0 0.42336,0.3647 0.75,0.5c0.23097,0.09567 0.50669,-0.05744 0.75,0c0.54406,0.12844 0.75,0.25 1,0.25c0.25,0 0.5,0 0.75,0c0.25,0 0.5,0 0.75,0c0.25,0 0.42336,0.1147 0.75,0.25c0.23097,0.09567 0.5,0 0.75,0c0.5,0 0.75,0 1,0.25c0.25,0.25 0.7965,0.42314 1.25,0.75c0.28682,0.20673 0.94925,0.31413 1.25,0.5c0.6725,0.41563 1,0.5 1.25,0.75l0.25,0l0.5,0.25l0.25,0" id="svg_1" stroke-width="1.5" stroke="#000" fill="none"/>
  <path d="m30.50003,84.99999c-0.25,0 -0.75,0 -1,0c-0.25,0 -0.92336,-0.3647 -1.25,-0.5c-0.23097,-0.09567 -0.70594,-0.12157 -1.25,-0.25c-0.24331,-0.05744 -0.45594,-0.12157 -1,-0.25c-0.24331,-0.05744 -0.70594,-0.62157 -1.25,-0.75c-0.24331,-0.05744 -0.45594,-0.37157 -1,-0.5c-0.24331,-0.05744 -0.59672,-0.2294 -1.25,-0.5c-0.23097,-0.09567 -0.5,-0.25 -0.75,-0.25c-0.25,0 -0.51338,-0.13512 -1,-0.25c-0.54406,-0.12843 -0.42336,-0.6147 -0.75,-0.75c-0.23097,-0.09567 -0.45594,-0.37157 -1,-0.5c-0.48662,-0.11488 -0.75,-0.25 -1,-0.25c-0.25,0 -0.40433,-0.26903 -0.5,-0.5c-0.1353,-0.32664 -0.8647,-0.42336 -1,-0.75c-0.09567,-0.23097 -0.26903,-0.65433 -0.5,-0.75c-0.32664,-0.1353 -0.61857,-0.78734 -0.75,-1c-0.29389,-0.47552 -0.85472,-0.35471 -1.25,-0.75c-0.39528,-0.39529 -0.5,-0.75 -0.75,-1c-0.25,-0.25 -0.17314,-0.5465 -0.5,-1c-0.20673,-0.28682 -0.15433,-0.76903 -0.25,-1c-0.1353,-0.32664 -0.62156,-0.45594 -0.75,-1c-0.05744,-0.24331 -0.19256,-0.75669 -0.25,-1c-0.12844,-0.54406 -0.25,-1 -0.5,-1.25c-0.25,-0.24999 -0.25,-0.49999 -0.25,-0.74999c0,-0.25 0,-0.5 0,-0.75c0,-0.5 0,-0.75 0,-1.25c0,-0.25 0,-0.5 0,-0.75c0,-0.75 0,-1 0,-1.25c0,-0.5 0,-0.75 0,-1c0,-0.25 0,-0.5 0,-1c0,-0.25 0,-0.5 0,-1c0,-0.5 0,-0.75 0,-1.5c0,-0.5 0,-0.75 0,-1.25c0,-0.25 0,-0.5 0,-0.75c0,-0.25 0,-0.75 0,-1c0,-0.5 0,-0.75 0,-1c0,-0.25 0,-0.75 0,-1c0,-0.5 -0.19134,-0.78806 0,-1.25c0.1353,-0.32664 0.25,-0.5 0.25,-1.5c0,-0.25 0.25,-0.75 0.25,-1c0,-0.25 0.17755,-0.51073 0.25,-0.75c0.26121,-0.86271 0.5,-1 0.5,-1.5c0,-0.25 0.25,-0.5 0.25,-0.75c0,-0.5 0.3647,-0.67336 0.5,-1c0.09567,-0.23097 0.25,-0.5 0.5,-0.75c0.25,-0.25 0.6147,-0.42336 0.75,-0.75c0.09567,-0.23097 0.40433,-0.76903 0.5,-1c0.1353,-0.32664 0.62156,-0.45594 0.75,-1c0.05744,-0.24331 0.25,-0.5 0.5,-0.75c0.5,-0.5 0.75,-0.75 1,-1c0.25,-0.25 0.3647,-0.42336 0.5,-0.75c0.09567,-0.23097 0,-0.5 0.25,-0.75c0.25,-0.25 0.25,-0.5 0.75,-1c0.25,-0.25 0.67336,-0.8647 1,-1c0.23097,-0.09567 0.42336,-0.3647 0.75,-0.5c0.46194,-0.19134 1,-0.5 1.25,-0.75c0.25,-0.25 0.51903,-0.15433 0.75,-0.25c0.32664,-0.1353 0.42336,-0.6147 0.75,-0.75c0.46194,-0.19134 0.75,-0.25 1.25,-0.5c0.5,-0.25 1.05292,-0.42853 1.75,-1c0.27342,-0.22415 0.5,-0.25 0.75,-0.25c0.25,0 0.5,-0.25 0.75,-0.25c0.25,0 1,-0.25 1.5,-0.75c0.25,-0.25 0.70594,-0.37156 1.25,-0.5c0.48662,-0.11488 0.92336,-0.6147 1.25,-0.75c0.46194,-0.19134 0.75,0 1,0c0.25,0 0.75,0 1,0c0.75,0 1.25,0 1.75,0c0.5,0 0.75,0 1.25,0c0.5,0 0.75,0 1,0c0.25,0 0.75,0 1.25,0c0.25,0 0.75,0 1,0c0.25,0 0.5,0 1.25,0c0.5,0 1.25,0 1.75,0c0.75,0 1,0 2,0c0.25,0 0.75,0 1.25,0c0.25,0 0.5,0 0.75,0c0.25,0 0.70594,0.12156 1.25,0.25c0.24331,0.05744 0.71964,0.12336 1.5,0.25c0.49355,0.08009 1.02006,-0.17231 1.75,0c0.54406,0.12844 1,0.25 1.25,0.25c0.5,0 0.92336,0.1147 1.25,0.25c0.23097,0.09567 0.51903,-0.09567 0.75,0c0.65328,0.2706 0.7696,0.69746 1.5,1c0.51646,0.21393 1.51073,0.67756 1.75,0.75c0.86271,0.26121 1.30292,0.67853 2,1.25c0.27342,0.22415 1.0465,0.42314 1.5,0.75c0.28682,0.20673 0.51903,0.40433 0.75,0.5c0.32664,0.1353 0.46318,0.29327 0.75,0.5c0.4535,0.32686 0.94925,0.81413 1.25,1c0.6725,0.41563 1.1147,0.17336 1.25,0.5c0.09567,0.23097 0.25,0.5 0.5,0.75c0.25,0.25 0.40433,0.51903 0.5,0.75c0.1353,0.32664 0.54327,0.71318 0.75,1c0.32687,0.4535 0.45995,0.75323 0.5,1c0.12663,0.78036 0.58655,1.17636 1,1.75c0.32687,0.4535 0.30865,1.03806 0.5,1.5c0.1353,0.32664 0.54327,0.71318 0.75,1c0.32687,0.4535 0.49999,0.75 0.49999,1c0,0.5 0.25,1 0.25,1.25c0,0.5 0,0.75 0,1.5c0,0.25 0,0.75 0,1.5c0,0.5 0.3647,1.17336 0.5,1.5c0.19135,0.46194 0,1 0,1.5c0,0.5 0,1 0,1.5c0,0.5 0,0.75 0,1.75c0,0.25 0,1 0,1.25c0,0.25 0,1 0,1.25c0,0.25 0,0.5 0,0.75c0,0.5 0,1 0,1.5c0,0.5 0.11488,1.26337 0,1.75c-0.12843,0.54406 -0.3647,0.92336 -0.5,1.25c-0.19135,0.46194 -0.25,1 -0.25,1.25c0,0.25 -0.49999,0.75 -0.49999,1c0,0.25 -0.3647,0.42336 -0.5,0.74999c-0.09567,0.23097 -0.04327,0.46318 -0.25,0.75c-0.32687,0.4535 -0.67313,1.0465 -1,1.5c-0.20673,0.28682 -0.17313,0.5465 -0.5,1c-0.20673,0.28682 -0.29327,0.71318 -0.5,1c-0.32687,0.4535 -0.15433,0.76903 -0.25,1c-0.1353,0.32664 -0.5,0.5 -0.75,0.75c-0.25,0.25 -0.29327,0.46318 -0.5,0.75c-0.32687,0.4535 -0.75,1 -1,1.25c-0.25,0.25 -0.30866,0.53806 -0.5,1c-0.2706,0.65328 -0.8647,0.67336 -1,1c-0.09567,0.23097 0.07664,0.6147 -0.25,0.75c-0.23097,0.09567 -0.42336,0.3647 -0.75,0.5c-0.23097,0.09567 -0.67336,0.6147 -1,0.75c-0.23097,0.09567 -0.53806,0.05865 -1,0.25c-0.32664,0.1353 -0.5,0.25 -0.75,0.25c-0.25,0 -0.51903,-0.09567 -0.75,0c-0.65328,0.2706 -0.75,0.5 -1,0.5c-0.5,0 -1.25,0 -1.75,0c-0.75,0 -1,0.25 -1.5,0.25c-0.5,0 -0.92336,0.1147 -1.25,0.25c-0.92388,0.38268 -1.25,0 -1.75,0c-0.5,0 -0.75,0 -1.25,0c-0.25,0 -0.75,0 -1.25,0c-0.25,0 -0.5,0 -1,0c-0.5,0 -0.75,0 -1,0c-0.25,0 -0.5,0 -0.75,0c-0.25,0 -0.5,0 -0.75,0c-0.5,0 -0.67336,0.1147 -1,0.25c-0.23097,0.09567 -0.5,0 -0.75,0c-0.25,0 -0.5,0 -0.75,0c-0.25,0 -0.5,0 -0.75,0c-0.5,0 -0.75,0 -1,0c-0.25,0 -0.5,0 -1,0c-0.25,0 -0.5,0 -0.75,0c-0.25,0 -0.51903,-0.09567 -0.75,0c-0.65328,0.2706 -0.75,0.5 -1.25,0.5c-0.25,0 -0.5,0 -1,0c-0.5,0 -0.75,0 -1.5,0c-0.25,0 -0.5,0 -0.75,0c-0.25,0 -0.42336,0.1147 -0.75,0.25c-0.23097,0.09567 -0.75,0 -1,0c-0.25,0 -0.5,0 -0.75,0c-0.25,0 -0.50323,0.04005 -0.75,0c-0.78036,-0.12663 -1.01903,-0.15433 -1.25,-0.25c-0.32664,-0.1353 -0.5,-0.25 -0.75,-0.25c-0.25,0 -0.46964,-0.37337 -1.25,-0.5c-0.24677,-0.04005 -1.5,-0.25 -1.75,-0.5l-0.75,-0.25l-0.25,-0.25" id="svg_2" stroke-width="1.5" stroke="#000" fill="none"/>
  <path d="m164.99997,87.99999c-0.25,0.25 -0.5,0.25 -0.75,0.25c-0.25,0 -0.75,0 -1,0c-0.25,0 -0.75,0 -1.25,0c-0.5,0 -1.42336,-0.3647 -1.75,-0.5c-0.6929,-0.28701 -1.16187,-0.49313 -2.24998,-0.75c-0.24332,-0.05744 -0.5,-0.25 -0.75,-0.25c-0.25,0 -0.50668,-0.19256 -0.75,-0.25c-0.54407,-0.12843 -1.3275,-0.08437 -2,-0.5c-0.30075,-0.18587 -0.5,-0.5 -0.75,-0.5c-0.5,0 -0.92336,-0.1147 -1.25,-0.25c-0.23097,-0.09567 -0.51073,-0.17755 -0.75,-0.25c-0.86272,-0.26121 -1.01961,-0.69746 -1.75,-1c-0.51646,-0.21393 -1.17636,-0.58655 -1.75,-1c-0.45349,-0.32687 -1.01903,-0.40433 -1.25,-0.5c-0.65327,-0.2706 -0.8275,-0.58437 -1.5,-1c-0.30075,-0.18587 -0.5,-0.5 -1,-0.75c-0.5,-0.25 -0.75,-0.5 -1,-0.5c-0.25,0 -0.54651,-0.17313 -1,-0.5c-0.28682,-0.20673 -0.5,-0.5 -1,-0.75c-0.5,-0.25 -1,-0.75 -1.25,-1c-0.5,-0.5 -0.63954,-0.62982 -1.5,-1.25c-0.45349,-0.32687 -0.75,-0.5 -1,-0.75c-0.25,-0.25 -0.75,-0.75 -1,-1c-0.25,-0.25 -0.75,-0.75 -1,-1c-0.25,-0.25 -0.25,-0.5 -0.5,-1c-0.25,-0.5 -0.54327,-1.21318 -0.75,-1.5c-0.32686,-0.4535 -0.38203,-0.77958 -0.5,-1c-0.42532,-0.79472 -0.75,-0.74999 -0.75,-0.99999c0,-0.5 -0.2294,-0.84672 -0.5,-1.5c-0.09567,-0.23097 -0.48878,-0.63729 -0.75,-1.5c-0.07245,-0.23927 -0.05865,-0.53806 -0.25,-1c-0.1353,-0.32664 -0.25,-0.5 -0.25,-1c0,-0.25 -0.1051,-0.52145 -0.25,-1c-0.26122,-0.86271 -0.62157,-1.20594 -0.75,-1.75c-0.05743,-0.24331 -0.25,-0.75 -0.25,-1c0,-0.25 0,-0.5 0,-1c0,-0.25 -0.1147,-0.42336 -0.25,-0.75c-0.09567,-0.23097 0,-1 0,-1.25c0,-0.5 0,-1 0,-1.25c0,-0.75 -0.3647,-0.92336 -0.5,-1.25c-0.09567,-0.23097 0,-0.75 0,-1.25c0,-0.75 0,-1.25 0,-1.75c0,-0.25 0,-0.75 0,-1.25c0,-0.5 0,-0.75 0,-1.5c0,-0.5 0.04327,-1.46318 0.25,-1.75c0.65373,-0.907 0.5,-1.25 0.5,-2c0,-0.25 0.17314,-0.7965 0.5,-1.25c0.20673,-0.28682 0.5,-0.75 0.5,-1.25c0,-0.5 -0.07147,-1.30292 0.5,-2c0.22415,-0.27342 0.16991,-0.50645 0.25,-1c0.12663,-0.78036 0.44257,-1.00669 0.5,-1.25c0.12843,-0.54406 0.16991,-0.75645 0.25,-1.25c0.12663,-0.78036 0.62157,-0.95594 0.75,-1.5c0.11488,-0.48663 0.37157,-0.70594 0.5,-1.25c0.11487,-0.48662 0.62157,-1.20593 0.75,-1.75c0.05743,-0.24331 0.13309,-0.79973 0.5,-1.5c0.58014,-1.10722 1.12982,-1.13955 1.75,-2c0.32686,-0.4535 0.75,-1.25 1.25,-1.75c0.25,-0.25 0.65433,-0.76903 0.75,-1c0.2706,-0.65328 0.75,-0.75 1,-1c0.25,-0.25 0.54651,-0.67314 1,-1c0.57364,-0.41345 0.97658,-1.02585 1.25,-1.25c0.69708,-0.57147 1.28983,-0.90266 2,-1.25c0.80974,-0.39602 1.44925,-0.81413 1.75,-1c0.6725,-0.41563 1.25,-0.5 1.5,-0.75c0.25,-0.25 0.42336,-0.3647 0.75,-0.5c0.23097,-0.09567 0.593,-0.09627 1.5,-0.75c0.28682,-0.20673 0.5,-0.25 1,-0.25c0.75,0 1.20593,-0.37156 1.75,-0.5c0.72993,-0.17232 1.5,-0.5 1.75,-0.5c0.25,0 0.75,-0.25 1,-0.25c0.5,0 0.70593,-0.12156 1.25,-0.25c0.24332,-0.05744 0.50323,0.04004 0.75,0c0.78036,-0.12663 0.84673,-0.4794 1.5,-0.75c0.23097,-0.09567 0.75,0 0.99998,0c0.25,0 0.75668,0.05744 1,0c0.54407,-0.12844 1,-0.25 1.25,-0.25c0.5,0 1,-0.25 1.25,-0.25c0.25,0 0.75,0 1.25,0c0.25,0 0.5,0 0.75,0c0.5,0 0.75,0 1,0c0.5,0 0.75,0 1.25,0c0.5,0 1,0 1.25,0c0.5,0 0.75,0 1,0c0.25,0 0.75,0 1.25,0c0.25,0 0.75,0 1,0c0.25,0 1.00323,0.45996 1.25,0.5c0.78036,0.12663 1.20593,0.37156 1.75,0.5c0.48662,0.11488 0.76903,0.15433 1,0.25c0.32664,0.1353 0.75,0.5 1,0.75c0.25,0.25 0.55708,-0.03701 1.25,0.25c0.32664,0.1353 0.76903,0.65433 1,0.75c0.32664,0.1353 0.44925,0.31413 0.75,0.5c0.6725,0.41563 1,0.25 1.25,0.5c0.25,0.25 0.51903,0.40433 0.75,0.5c0.32664,0.1353 0.593,0.34627 1.5,1c0.28682,0.20673 0.54651,0.42314 1,0.75c0.57364,0.41345 0.79651,0.67314 1.25,1c0.28682,0.20673 0.42755,0.51073 0.5,0.75c0.26122,0.86271 1,1.25 1.25,1.5c0.25,0.25 0.69257,0.75669 0.75,1c0.12843,0.54406 0.5,0.75 0.5,1c0,0.25 0.4794,0.34672 0.75,1c0.09567,0.23097 -0.09567,0.51903 0,0.75c0.1353,0.32664 0.17314,0.5465 0.5,1c0.20673,0.28682 0.4794,0.34672 0.75,1c0.09567,0.23097 0.33437,0.8275 0.75,1.5c0.37175,0.6015 1,1.25 1.25,1.5c0.5,0.5 0.88512,1.01337 1,1.5c0.12843,0.54406 0.5,0.75 0.75,1c0.25,0.25 0.5,0.5 0.5,0.75c0,0.25 0.25,0.5 0.25,0.75c0,0.5 0,0.75 0,1c0,0.5 0,1 0,1.5c0,0.25 -0.07686,1.0465 0.25,1.5c0.20673,0.28682 0.34567,0.51903 0.25,0.75c-0.1353,0.32664 -0.25,0.5 -0.25,0.75c0,0.25 0.12337,0.71964 0.25,1.5c0.04004,0.24677 0.25,1 0.25,1.25c0,0.5 0,1 0,1.25c0,0.5 0,1 0,1.5c0,0.25 0,0.75 0,1c0,0.5 0,0.75 0,1.25c0,0.25 0,0.5 0,1.25c0,0.25 0,0.5 0,1.25c0,0.25 0,0.5 0,1c0,0.25 0,0.75 0,1.25c0,0.25 0,0.75 0,1.25c0,0.25 -0.05743,0.50669 0,0.75c0.12843,0.54406 0.5,1 0.5,1.25c0,0.5 0,0.75 0,1.25c0,0.5 0,0.75 0,1c0,0.25 0,0.75 0,1c0,0.5 0,1 0,1.25c0,0.25 0,0.5 0,1c0,0.25 0,0.5 0,0.75c0,0.25 0,0.75 0,1c0,0.25 -0.6147,0.92336 -0.75,1.25c-0.09567,0.23097 0,0.75 0,1.25c0,0.25 -0.12157,0.45593 -0.25,0.99999c-0.05743,0.24331 -0.19257,0.50669 -0.25,0.75c-0.12843,0.54406 -0.5,0.75 -0.75,1c-0.25,0.25 -0.40433,0.51903 -0.5,0.75c-0.1353,0.32664 -0.5,0.5 -0.75,0.75c-0.25,0.25 -0.17314,0.5465 -0.5,1c-0.20673,0.28682 -0.25,0.5 -0.5,0.75c-0.25,0.25 -0.6147,0.42336 -0.75,0.75c-0.09567,0.23097 -0.15433,0.51903 -0.25,0.75c-0.1353,0.32664 -0.5,0.5 -0.75,0.75c-0.25,0.25 -0.5,0.5 -0.75,0.75c-0.25,0.25 -0.40433,0.51903 -0.5,0.75c-0.1353,0.32664 -0.51903,0.40433 -0.75,0.5c-0.32664,0.1353 -0.5,0.5 -0.75,0.75c-0.25,0.25 -0.51903,0.15433 -0.75,0.25c-0.32664,0.1353 -0.42336,0.3647 -0.75,0.5c-0.23097,0.09567 -0.92336,0.6147 -1.25,0.75c-0.23097,0.09567 -0.45593,0.12157 -1,0.25c-0.24332,0.05744 -0.5,0 -0.75,0c-0.25,0 -0.53806,-0.19135 -1,0c-0.32664,0.1353 -0.42336,0.6147 -0.75,0.75c-0.23097,0.09567 -0.92336,0.1147 -1.25,0.25c-0.23097,0.09567 -0.67336,0.1147 -1,0.25c-0.69292,0.28701 -1,0.25 -1.25,0.25c-0.25,0 -0.42336,0.3647 -0.75,0.5c-0.23097,0.09567 -0.5,0 -0.75,0c-0.5,0 -0.67336,0.1147 -1,0.25c-0.23097,0.09567 -0.76903,-0.09567 -1,0c-0.32664,0.1353 -0.5,0.5 -0.75,0.5c-0.5,0 -0.76903,-0.09567 -1,0c-0.32664,0.1353 -0.51903,0.40433 -0.75,0.5c-0.32664,0.1353 -0.53806,0.05865 -1,0.25c-0.32664,0.1353 -0.5,0.25 -0.75,0.25c-0.25,0 -0.75,0.25 -1,0.25c-0.25,0 -0.42336,0.3647 -0.75,0.5c-0.23097,0.09567 -0.5,0 -0.75,0c-0.25,0 -0.5,0 -0.75,0c-0.25,0 -0.5,0 -0.75,0c-0.25,0 -0.42336,0.1147 -0.75,0.25c-0.23097,0.09567 -0.75,0 -1,0c-0.25,0 -0.75,0 -1.5,0l-0.5,0l-0.5,0l-0.5,0" id="svg_4" stroke-width="1.5" stroke="#000" fill="none"/>
 </g>
</svg>