<svg width="200" height="100" xmlns="http://www.w3.org/2000/svg">
 <!-- Created with Method Draw - http://github.com/duopixel/Method-Draw/ -->
 <g>
  <title>background</title>
  <rect fill="#fff" id="canvas_background" height="102" width="202" y="-1" x="-1"/>
  <g display="none" overflow="visible" y="0" x="0" height="100%" width="100%" id="canvasGrid">
   <rect fill="url(#gridpattern)" stroke-width="0" y="0" x="0" height="100%" width="100%"/>
  </g>
 </g>
 <g>
  <title>Layer 1</title>
  <path d="m35.00028,70.24992c0,-0.25 0.33655,-0.92636 0.75,-1.49999c0.32686,-0.4535 0.83654,-1.17636 1.25,-1.74999c0.32686,-0.4535 0.75,-1 1.24999,-1.49999c0.25,-0.25 0.47658,-0.52585 0.75,-0.75c0.69708,-0.57147 0.99999,-0.75 1.99999,-1.74999c0.25,-0.25 1.20967,-1.29262 1.99999,-1.99999c1.19278,-1.06759 2.2696,-1.69745 2.99999,-1.99999c1.03292,-0.42785 1.34671,-1.2294 1.99999,-1.5c0.46194,-0.19134 1,-0.49999 1.5,-0.99999c0.25,-0.25 0.21299,-0.55709 0.5,-1.25c0.4059,-0.97992 1.25,-1.49999 2.24999,-2.49999c1,-1 1.88954,-1.87981 2.74999,-2.49999c0.90699,-0.65372 1.74999,-1.25 2.24999,-1.74999c0.75,-0.75 1.49999,-1.25 2.24999,-1.99999c0.25,-0.25 0.42853,-0.80291 1,-1.49999c0.22415,-0.27342 1.0517,-0.95316 1.49999,-1.5c0.57147,-0.69708 1,-1.24999 1.5,-1.74999c0.74999,-0.75 1.45316,-1.55169 1.99999,-1.99999c0.69707,-0.57146 1.17974,-1.07755 1.99999,-1.74999c0.69707,-0.57147 0.88954,-0.87982 1.74999,-1.5c0.45349,-0.32686 1.05292,-0.42852 1.74999,-0.99999c0.54683,-0.4483 1.49999,-1.25 2.49998,-2.24999c0.75,-0.75 1.18668,-1.09283 2.24999,-1.74999c0.95105,-0.58778 2.26415,-1.22938 2.99998,-1.74999c1.02042,-0.72196 1.79649,-0.92313 2.24999,-1.24999c0.57363,-0.41345 0.99999,-1 1.24999,-1.24999c0.5,-0.5 1.36469,-0.92336 1.49999,-1.24999c0.09567,-0.23097 0.5,-1 0.75,-1.24999c0.5,-0.5 0.74999,-0.75 0.99999,-1c0.25,-0.25 0.6147,-0.67336 0.75,-1c0.09567,-0.23097 0.52585,-0.72658 0.74999,-1c0.57146,-0.69708 0.5,-0.99999 1,-1.49999c0.25,-0.25 0.74999,-0.5 0.99999,-0.75c0.25,-0.25 0.51903,-0.34567 0.75,-0.25c0.32664,0.1353 0.47214,0.54852 1.74999,1.24999c0.98006,0.53801 2.29893,1.41221 3.24998,1.99999c1.06331,0.65716 1.85272,1.42309 2.99998,2.24999c0.907,0.65372 2.05568,1.18099 2.99999,1.99999c0.80128,0.69494 1.46581,1.5367 1.99998,1.99999c0.94431,0.819 1.74999,1 2.49999,1.74999c0.5,0.5 1.47038,1.29756 2.24999,1.74999c0.967,0.56117 1.74999,1.25 2.24998,1.74999c0.75,0.75 1.593,1.34627 2.49999,1.99999c1.14726,0.8269 1.49999,1.49999 2.74998,2.49999c1.25,1 1.68162,1.57339 2.74999,2.49999c0.94431,0.819 1.68668,1.34283 2.74998,1.99999c0.47552,0.29389 0.8275,0.33437 1.49999,0.75c0.6015,0.37175 0.78806,0.55865 1.25,0.75c0.32664,0.1353 0.82749,0.33437 1.49999,0.75c0.6015,0.37175 1.14277,1.16986 2.24999,1.74999c0.70026,0.36691 1.76415,0.97938 2.49999,1.5c1.02042,0.72196 1.76819,1.22047 2.99998,1.99999c0.76169,0.48202 1.47037,1.29757 2.24998,1.74999c0.48351,0.28059 0.59673,0.4794 1.25,0.75c0.23097,0.09567 0.5,0.25 0.75,0.25c0.24998,0 0.74998,0.5 1.24998,1c0.5,0.5 1.71318,1.29327 2,1.49999c0.90698,0.65372 1.44025,1.10397 2.24998,1.5c0.71017,0.34734 1.47038,1.04757 2.24998,1.49999c0.967,0.56117 1.51961,0.69746 2.25,1c0.51646,0.21393 0.80707,-0.03701 1.49998,0.25c0.32664,0.1353 0.42336,0.6147 0.75,0.75c0.23097,0.09567 0.42336,0.1147 0.75,0.25c0.23097,0.09567 0.51338,0.13512 1,0.25c0.54405,0.12844 0.98352,0.53607 1.49998,0.75c0.73039,0.30254 1.3985,0.62825 2,1c0.67249,0.41562 1.19026,0.35397 1.99998,0.75c0.71017,0.34734 1.02007,0.32769 1.74998,0.5c0.54407,0.12843 0.76961,0.19746 1.5,0.5c0.51646,0.21393 1.25645,0.66991 1.75,0.75c0.78035,0.12663 1.01901,0.15433 1.24998,0.25c0.32663,0.13529 0.76903,0.15432 1,0.24999c0.32664,0.1353 0.78807,0.05865 1.25,0.25c0.32663,0.1353 0.76901,0.40433 0.99998,0.5c0.32664,0.1353 0.42336,0.3647 0.75,0.5c0.46194,0.19135 1.01073,0.17755 1.25,0.25c0.8627,0.26121 1.01901,0.65432 1.24998,0.74999c0.32664,0.1353 0.5,0.25 0.75,0.5c0.25,0.25 0.8647,0.42336 1,0.74999c0.09567,0.23097 0,0.75 0,1c0,0.25 0,0.5 0,0.74999c0,0.25 0,0.5 0,0.75c0,0.25 0.09567,0.51903 0,0.75c-0.1353,0.32664 -0.5,0.49999 -0.75,0.49999c-0.5,0 -1,0 -1.74998,0c-0.75,0 -1.5,0 -2.25,0c-0.75,0 -1.49998,0 -1.99998,0c-1,0 -2,0 -2.5,0c-0.74998,0 -1.49998,0 -2.24998,0c-0.75,0 -1.49998,0 -4.99997,0c-1.25,0 -2.5,0 -3.74998,0c-1.25,0 -2.5,0 -4.24998,0c-1.75,0 -2.99998,0 -4.24998,0c-1.5,0 -2.99998,0 -4.24998,0c-1.24998,0 -2.24998,0 -2.74998,0c-1,0 -1.5,0 -1.99998,0c-0.75,0 -1.5,0 -2.25,0c-0.5,0 -1.49998,0 -2.74998,0c-0.99999,0 -1.99999,0 -2.74998,0c-1,0 -2.24999,0 -3.24999,0c-0.49999,0 -1.49999,0 -2.49998,0c-1,0 -1.74999,0 -2.74999,0c-0.74999,0 -1.49999,0 -2.74998,0c-0.75,0 -1.74999,0 -2.74998,0c-1,0 -1.99999,0 -2.99999,0c-1.24999,0 -1.99999,0 -2.99998,0c-0.99999,0 -1.99999,0 -2.99998,0c-0.75,0 -1.74999,0 -2.74999,0c-0.49999,0 -1.24999,0 -1.74999,0c-0.74999,0 -1.49999,0 -1.99999,0c-0.49999,0 -1.25562,-0.09164 -1.99998,0c-1.02306,0.12595 -2.00364,0.17609 -2.74999,0.25c-1.26855,0.12561 -1.99999,0.25 -2.99998,0.25c-1.24999,0 -2.24999,0 -3.24998,0c-1,0 -1.99999,0 -2.99999,0c-1.24999,0 -2.49998,0 -3.49998,0c-1.24999,0 -2.24998,0 -3.24998,0c-0.99999,0 -1.99999,0 -2.99998,0c-1.24999,0 -1.99999,0 -2.99998,0c-0.75,0 -1.49999,0 -2.24999,0c-0.5,0 -0.99999,0 -1.49999,0c-0.5,0 -0.75,0 -1.24999,0c-0.5,0 -1,0 -1.5,0c-1,0 -1.74999,0 -2.74999,0c-0.75,0 -1.99999,0 -2.74999,0c-1.25,0 -1.74999,0 -2.74999,0c-1,0 -1.99999,0 -2.74999,0c-1,0 -2.24999,0 -2.49999,0c-0.75,0 -1.24999,0 -1.74999,0c-0.25,0 -0.5,0 -0.75,0c-0.5,0 -0.75,0 -1,0c-0.25,0 -1,0 -1.49999,0c-0.75,0 -1.25,0 -1.74999,0c-0.5,0 -1.25,0 -1.49999,0c-0.25,0 -0.5,0 -0.75,0c-0.25,0 -0.5,0 -0.75,0c-0.25,0 -0.5,0 -0.75,0c-0.25,0 -0.5,0 -0.75,0c-0.25,0 -0.42336,-0.1147 -0.75,-0.25c-0.23097,-0.09567 -0.5,0 -0.75,-0.25c-0.25,-0.25 -0.51903,-0.40432 -0.75,-0.49999c-0.32664,-0.1353 -0.5,-0.5 -0.75,-0.5c-0.25,0 -0.5,-0.25 -0.75,-0.5l0,-0.25" id="svg_1" stroke-width="1.5" stroke="#000" fill="none"/>
  <path d="m30.2503,92.99982c-0.25,0.25 -0.5,0.25 -0.75,0.25c-0.25,0 -0.5,0 -0.75,0c-0.25,0 -0.5,0 -0.75,-0.25c-0.25,-0.25 -0.45593,-0.37157 -1,-0.5c-0.48662,-0.11488 -0.92335,-0.61469 -1.24999,-0.74999c-0.23097,-0.09567 -0.99999,-0.25 -1.24999,-0.5c-0.25,-0.25 -0.5465,-0.42314 -1,-0.75c-0.28681,-0.20672 -0.5,-0.49999 -0.99999,-0.99999c-0.5,-0.5 -0.75,-0.75 -1,-0.99999c-0.25,-0.25 -0.42336,-0.3647 -0.75,-0.5c-0.23097,-0.09567 -0.47658,-0.27585 -0.75,-0.5c-0.69708,-0.57147 -1.05291,-0.67852 -1.74999,-1.24999c-0.82025,-0.67245 -1.22658,-1.02585 -1.49999,-1.24999c-0.69708,-0.57146 -1,-0.75 -1.49999,-1.25c-0.25,-0.25 -0.75,-0.74999 -1,-0.99999c-0.25,-0.25 -0.42853,-0.80292 -1,-1.49999c-0.22415,-0.27341 -0.40266,-0.53982 -0.75,-1.25c-0.39602,-0.80972 -0.69746,-1.0196 -1,-1.74999c-0.21392,-0.51646 -0.4794,-0.84671 -0.75,-1.49999c-0.09567,-0.23097 0,-0.99999 0,-1.24999c0,-0.75 0,-0.99999 0,-1.49999c0,-0.75 0,-1 0,-1.74999c0,-0.75 0,-1.49999 0,-1.99999c0,-0.5 0.04757,-0.97038 0.5,-1.74999c0.28058,-0.4835 0.85397,-0.94026 1.24999,-1.74999c0.34734,-0.71018 0.87336,-1.46964 1,-2.24999c0.08009,-0.49354 0.37336,-0.96963 0.5,-1.74999c0.08009,-0.49354 0.6147,-0.92335 0.75,-1.24999c0.19134,-0.46194 0.19256,-1.00668 0.25,-1.25c0.12844,-0.54406 0.58437,-1.0775 1,-1.74999c0.37175,-0.6015 0.92313,-1.0465 1.24999,-1.49999c0.41345,-0.57363 1,-1.25 1.24999,-1.49999c0.5,-0.5 1,-1.25 1.24999,-1.5c0.5,-0.5 1.24999,-1.24999 1.49999,-1.49999c0.5,-0.5 0.97658,-1.02584 1.24999,-1.24999c0.69708,-0.57146 0.98353,-0.78607 1.49999,-1c0.73039,-0.30254 0.95593,-0.62156 1.49999,-0.75c0.24331,-0.05744 0.45593,-0.12156 1,-0.25c0.48662,-0.11488 0.72694,-0.12406 1.74999,-0.25c0.24813,-0.03054 0.99999,-0.25 1.49999,-0.25c0.75,0 1.24999,0 1.74999,0c0.5,0 1,0 1.74999,0c0.25,0 1,0 1.74999,0c0.75,0 1.74999,0 2.24999,0c0.75,0 0.99999,0 1.24999,0c0.25,0 0.75968,-0.12014 1.49999,0c0.78036,0.12664 1.46964,0.87336 2.24999,1c0.24677,0.04005 1.26282,0.17094 1.49999,0.25c1.18585,0.39528 1.29894,0.91221 2.24999,1.49999c1.0633,0.65716 1.49999,1.25 2.74998,2.24999c1.25,1 2.24999,1.74999 2.99999,2.49999c0.75,0.75 1.55567,1.18099 2.49999,1.99999c0.53418,0.46329 0.85288,1.351 1.74999,2.49999c0.43516,0.55734 0.93882,1.28299 1.49999,2.24999c0.45243,0.77962 1.10397,1.69026 1.5,2.49999c0.34733,0.71017 0.5,1.74999 0.75,2.49998c0.25,0.75 0.5,1.74999 0.5,2.49999c0,0.74999 0,1.74999 0,2.74998c0,0.75 0,1.74999 0,2.74999c0,0.99999 0,1.99999 0,2.49998c0,1 -0.41986,1.64277 -1,2.74999c-0.36691,0.70026 -0.66986,1.14277 -1.24999,2.24998c-0.36691,0.70027 -0.5,1.25 -1,1.74999c-0.25,0.25 -0.45995,0.75323 -0.5,1c-0.12664,0.78036 -0.17756,1.26072 -0.25,1.49999c-0.26121,0.86271 -0.79327,0.96317 -1,1.24999c-0.32686,0.4535 -0.74999,1 -1,1.25c-0.25,0.24999 -0.45593,0.62156 -1,0.74999c-0.24331,0.05743 -0.75,0.25 -1.24999,0.25c-0.5,0 -1.26072,0.17755 -1.5,0.25c-0.86271,0.26121 -1.24999,0.5 -1.49999,0.5c-0.75,0 -1.24999,0 -2.24999,0c-0.75,0 -1,0 -1.5,0c-0.75,0 -0.99999,0 -1.24999,0c-0.5,0 -1,0 -1.25,0c-0.5,0 -0.75,0 -1,0c-0.25,0 -0.75,0 -0.99999,0c-0.25,0 -0.5,0 -1,0c-0.25,0 -0.75,0 -1.25,0c-0.25,0 -0.75,0 -1,0c-0.25,0 -0.5,0 -0.75,0c-0.25,0 -0.5,0 -0.75,0c-0.25,0 -0.75668,0.19255 -1,0.24999c-0.54406,0.12843 -0.67336,0.3647 -1,0.5c-0.23096,0.09567 -0.5,0 -0.75,0c-0.25,0 -0.5,0 -0.75,0c-0.5,0 -0.75,0 -1,0c-0.25,0 -0.75,0 -1,0c-0.5,0 -0.99999,0 -1.24999,0c-0.25,0 -0.5,0 -0.75,0l-0.5,0l-0.5,0" id="svg_2" stroke-width="1.5" stroke="#000" fill="none"/>
  <path d="m94.25002,37.50006c-0.25,0.25 -0.74999,0.25 -0.99999,0.25c-0.25,0 -0.5,0 -1,0c-0.49999,0 -1.24999,0 -1.99998,0c-1,0 -1.99999,0 -2.74999,0c-0.5,0 -0.99999,0 -1.49999,0c-0.25,0 -1.00322,-0.45995 -1.24999,-0.5c-0.78036,-0.12664 -1.52145,-0.35511 -1.99999,-0.5c-0.86271,-0.26121 -1.28981,-0.90266 -1.99999,-1.24999c-0.80973,-0.39602 -1.24999,-0.75 -1.49999,-1c-0.25,-0.25 -0.55292,-0.42853 -1.24999,-1c-0.27341,-0.22415 -0.55292,-0.42853 -1.25,-1c-0.27341,-0.22415 -0.15266,-0.53982 -0.49999,-1.24999c-0.39602,-0.80973 -0.44746,-1.2696 -0.75,-1.99999c-0.21393,-0.51646 -0.25,-1.24999 -0.25,-1.99999c0,-0.5 0,-1 0,-1.49999c0,-0.99999 0,-1.74999 0,-2.24999c0,-0.99999 0,-1.49999 0,-2.24999c0,-0.5 0,-1.25 0,-1.49999c0,-0.75 -0.21734,-1.53218 0,-2.24999c0.26121,-0.86271 0.49214,-1.60301 1,-2.49999c0.52258,-0.92298 1.24999,-1.49999 1.49999,-1.74999c0.74999,-0.74999 1.25,-1.24999 1.99999,-1.99999c0.24999,-0.25 0.75645,-0.41991 1.24999,-0.5c0.78036,-0.12663 1.50967,-0.62986 2.24999,-0.75c0.78035,-0.12663 1.77808,-0.38676 2.99998,-0.75c1.29047,-0.38362 2.49432,-0.77386 3.49998,-1c1.24369,-0.27966 2.24999,-0.25 2.99998,-0.25c0.75,0 1.49999,-0.5 1.99999,-0.5c0.25,0 0.75,0 0.99999,0c0.5,0 1,0 1.25,0c0.25,0 0.49999,0 1.24999,0c0.25,0 1.26902,0.40433 1.49999,0.5c0.32664,0.1353 1.19924,1.06412 1.49999,1.24999c0.6725,0.41563 1.55291,0.92852 2.24999,1.49999c0.54684,0.4483 1.22938,1.26416 1.74999,1.99999c0.72196,1.02042 1.47741,1.827 1.99999,2.74999c0.50786,0.89698 1.05605,1.9757 1.24999,2.49999c0.35762,0.96675 0.15266,1.78981 0.5,2.49999c0.39603,0.80973 0.37987,1.75968 0.5,2.49999c0.12663,0.78036 0.24999,1.24999 0.24999,1.99999c0,0.25 0.16563,0.5775 -0.24999,1.24999c-0.18587,0.30075 -0.41991,1.00645 -0.5,1.49999c-0.12663,0.78036 -0.75,1.49999 -1,1.99999c-0.24999,0.5 -0.49999,1.24999 -1.24999,1.99999c-0.25,0.25 -0.5,0.5 -0.74999,0.75c-0.25,0.25 -0.50669,0.44256 -0.75,0.5c-0.54406,0.12844 -0.99999,0.75 -1.24999,1c-0.25,0.25 -0.75,0.75 -1,1c-0.25,0.25 -0.49999,0.5 -0.99999,1c-0.25,0.25 -0.42336,0.6147 -0.75,0.75c-0.23097,0.09567 -0.74999,0.25 -0.99999,0.25c-0.25,0 -0.51903,-0.09567 -0.75,0c-0.32664,0.1353 -0.49999,0.5 -0.74999,0.5c-0.25,0 -0.5,0 -0.75,0c-0.25,0 -0.5,0 -0.74999,0c-0.25,0 -0.5,0 -0.75,0c-0.5,0 -0.75,0 -0.99999,0c-0.25,0 -1,0 -1.25,0c-0.74999,0 -1.20593,-0.12156 -1.74999,-0.25c-0.48662,-0.11487 -1.03806,-0.05866 -1.49999,-0.25c-0.32664,-0.1353 -0.5,-0.25 -0.74999,-0.25c-0.25,0 -0.5,0 -0.75,-0.25l-0.25,-0.25" id="svg_3" stroke-width="1.5" stroke="#000" fill="none"/>
  <path d="m165.99971,87.74984c-0.25,0.25 -0.5,0.25 -1,0.25c-0.74998,0 -1.48961,-0.12481 -3.74997,-0.25c-0.99847,-0.0553 -1.45142,-0.6121 -2.5,-0.99999c-0.96674,-0.35762 -2.01959,-0.69746 -2.74998,-1c-1.03293,-0.42786 -2.01901,-1.15432 -2.24998,-1.24999c-0.32664,-0.1353 -0.75,-0.5 -1.25,-1c-0.5,-0.49999 -1,-0.75 -1.74998,-1.49999c-0.75,-0.75 -1.46278,-1.37132 -2,-2.49998c-0.44299,-0.93073 -0.98878,-1.63728 -1.25,-2.49999c-0.28978,-0.95708 -0.24998,-1.74999 -0.24998,-2.49998c0,-1 -0.25,-1.74999 -0.25,-2.74999c0,-0.74999 0,-1.24999 0,-2.24999c0,-0.99999 -0.16019,-1.7629 0,-2.74998c0.12663,-0.78036 0.71069,-1.52773 1.24998,-2.24999c1.1682,-1.56454 1.75,-2.49998 2.5,-3.24998c0.99998,-0.99999 1.60272,-1.92308 2.74998,-2.74999c0.90698,-0.65372 2.29893,-1.16221 3.24998,-1.74999c1.06331,-0.65716 1.97122,-1.31857 2.49998,-1.49999c1.20575,-0.4137 1.71964,-0.62336 2.49998,-0.75c0.74031,-0.12014 1.25,0 1.5,0c0.25,0 0.75,0 1.25,0c0.99998,0 1.74998,0 2.74998,0c0.75,0 1.99998,0 2.49998,0c1,0 2.00668,0.44256 2.24998,0.5c0.54407,0.12844 1.00323,0.45995 1.25,0.5c0.78036,0.12663 0.95317,0.5517 1.5,1c0.69707,0.57146 1.24998,0.99999 1.74998,1.49999c0.5,0.5 1.48878,0.88728 1.75,1.74999c0.07245,0.23927 0.5,0.75 1.24998,1.49999c0.25,0.25 0.7294,0.59671 1,1.25c0.09567,0.23096 0.37337,1.21963 0.5,1.99999c0.08009,0.49355 0.2294,1.09672 0.5,1.74999c0.28702,0.69291 0.12405,1.22694 0.25,2.24999c0.0611,0.49625 -0.08009,1.50645 0,1.99999c0.12663,0.78036 0.25,1.49999 0.25,1.99999c0,0.25 0,0.99999 0,1.24999c0,0.75 0,1.24999 0,1.99999c0,0.5 0,1.24999 0,1.74999c0,0.5 0.1449,1.27145 0,1.74999c-0.26122,0.8627 -0.57768,1.02006 -0.75,1.74999c-0.12843,0.54406 -0.37157,0.95593 -0.5,1.49999c-0.05743,0.24331 -0.40433,0.76903 -0.5,0.99999c-0.1353,0.32664 -0.42314,0.5465 -0.75,1c-0.41345,0.57363 -0.74998,0.74999 -0.99998,0.99999c-0.25,0.25 -0.76903,0.65433 -1,0.75c-0.32664,0.1353 -0.50668,0.19256 -0.75,0.25c-0.54407,0.12843 -0.75,0.25 -1,0.25c-0.49998,0 -0.92334,0.36469 -1.24998,0.49999c-0.23097,0.09567 -0.5,0 -0.75,0c-0.25,0 -0.75,0 -1.25,0c-0.25,0 -0.5,0 -0.74998,0c-0.25,0 -0.5,0 -1,0c-0.5,0 -0.75,0 -1,0c-0.25,0 -0.5,0 -0.75,0c-0.25,0 -0.5,0 -0.74998,0c-0.25,0 -0.5,0 -0.75,0c-0.25,0 -0.5,0 -1,0c-0.25,0 -0.53806,-0.19135 -1,0c-0.32664,0.1353 -0.5,0.25 -0.74998,0.25c-0.5,0 -0.75,0 -1,0c-0.25,0 -0.75,0 -1,0c-0.75,0 -1.74998,0 -2.74998,-0.25l-1,-0.49999" id="svg_4" stroke-width="1.5" stroke="#000" fill="none"/>
 </g>
</svg>