<svg width="1500" height="600" xmlns="http://www.w3.org/2000/svg">
 <!-- Created with Method Draw - http://github.com/duopixel/Method-Draw/ -->
 <g>
  <title>background</title>
  <rect fill="#fff" id="canvas_background" height="602" width="1502" y="-1" x="-1"/>
 </g>
 <g>
  <title>Layer 1</title>
  <path id="svg_4" d="m-239.33913,-9.335146c42.666917,32.000188 28.000164,62.667034 77.333786,90.667198c49.333622,28.000164 52.000305,49.333622 108.000633,48.000281c56.000328,-1.333341 124.000727,-34.66687 145.334185,-4.000023c21.333458,30.666846 34.66687,60.000352 72.000422,72.000422c37.333552,12.00007 138.667479,1.333341 160.000938,-4.000023c21.333458,-5.333365 93.33388,-13.333411 106.667292,12.00007c13.333411,25.333482 33.333529,80.000469 52.000305,100.000586c18.666776,20.000117 94.667221,-24.000141 113.333997,-24.000141c18.666776,0 112.000656,-28.000164 128.00075,-1.333341c16.000094,26.666823 56.000328,66.667057 61.333693,69.33374c5.333365,2.666682 61.333693,1.333341 69.33374,-10.666729c8.000047,-12.00007 50.666964,-49.333622 72.000422,-45.333599c21.333458,4.000023 129.334091,-8.000047 134.667456,-14.666753c5.333365,-6.666706 88.000516,-54.666987 102.667268,-64.000375c14.666753,-9.333388 93.33388,-38.666893 106.667292,-21.333458c13.333411,17.333435 36.000211,61.333693 40.000234,69.33374c4.000023,8.000047 58.66701,30.666846 66.667057,34.66687c8.000047,4.000023 52.000305,-2.666682 82.667151,25.333482c30.666846,28.000164 61.333693,36.000211 108.000633,46.66694c46.66694,10.666729 141.334161,17.333435 168.000984,12.00007c26.666823,-5.333365 81.33381,44.000258 85.333833,52.000305c4.000023,8.000047 4.000023,121.334044 4.000023,142.667503c0,21.333458 -30.666846,54.666987 -57.333669,68.000398c-26.666823,13.333411 -213.334583,54.666987 -258.668182,61.333693c-45.333599,6.666706 -204.001195,12.00007 -262.668206,6.666706c-58.66701,-5.333365 -256.0015,-21.333458 -309.335146,-17.333435c-53.333646,4.000023 -272.001594,-8.000047 -340.001992,-8.000047c-68.000398,0 -413.335755,6.666706 -458.669354,6.666706c-45.333599,0 -213.334583,-24.000141 -258.668182,-49.333622c-45.333599,-25.333482 -126.667409,-158.667596 -140.00082,-216.001266c-13.333411,-57.333669 -29.333505,-134.667456 -29.333505,-177.334372c0,-42.666917 -2.666682,-72.000422 -2.666682,-130.667432c0,-58.66701 10.666729,-161.334279 53.333646,-129.334091z" fill-opacity="null" stroke-opacity="null" stroke-width="1.5" stroke="#000" fill="none"/>
 </g>
</svg>